<svg width="49" height="34" viewBox="0 0 49 34" fill="none" xmlns="http://www.w3.org/2000/svg">
<rect x="0.5" y="0.5" width="47.592" height="33" rx="2.5" fill="white"/>
<rect x="0.5" y="0.5" width="47.592" height="33" rx="2.5" stroke="#CCCCCC"/>
<g clip-path="url(#clip0_355_75183)">
<path d="M21.0918 22.7647V14.8283C21.0918 14.1271 21.3703 13.4547 21.8661 12.9589C22.3619 12.4631 23.0343 12.1846 23.7355 12.1846L26.0785 12.1878C26.7778 12.1892 27.448 12.4681 27.942 12.9631C28.436 13.4581 28.7133 14.1289 28.7132 14.8283V16.5172C28.7132 17.2184 28.4347 17.8909 27.9389 18.3867C27.4432 18.8826 26.7707 19.1612 26.0695 19.1613H22.7579" stroke="#939598" stroke-width="0.351305" stroke-linecap="round" stroke-linejoin="round"/>
<path d="M29.3691 12.1836H30.3856C30.6734 12.1836 30.9494 12.2979 31.1529 12.5014C31.3564 12.7049 31.4707 12.9809 31.4707 13.2687V19.1967" stroke="#939598" stroke-width="0.351305" stroke-linecap="round" stroke-linejoin="round"/>
<path d="M31.2517 11.2655L30.7908 10.8043C30.7637 10.7771 30.7421 10.7449 30.7274 10.7094C30.7127 10.6738 30.7051 10.6358 30.7051 10.5974C30.7051 10.5589 30.7127 10.5209 30.7274 10.4854C30.7421 10.4498 30.7637 10.4176 30.7908 10.3904L31.2517 9.92958C31.3067 9.87462 31.3813 9.84375 31.459 9.84375C31.5368 9.84375 31.6114 9.87462 31.6664 9.92958L32.1268 10.3904C32.154 10.4176 32.1755 10.4498 32.1903 10.4854C32.205 10.5209 32.2126 10.5589 32.2126 10.5974C32.2126 10.6358 32.205 10.6738 32.1903 10.7094C32.1755 10.7449 32.154 10.7771 32.1268 10.8043L31.6643 11.2655C31.6371 11.2927 31.6048 11.3143 31.5693 11.329C31.5337 11.3438 31.4957 11.3513 31.4572 11.3513C31.4187 11.3513 31.3806 11.3438 31.3451 11.329C31.3095 11.3143 31.2772 11.2927 31.25 11.2655" fill="#32BCAD"/>
<path d="M33.4219 12.1787H34.4298C34.9482 12.1785 35.4455 12.3842 35.8123 12.7507L38.17 15.1084C38.2426 15.1811 38.3288 15.2387 38.4237 15.2781C38.5186 15.3174 38.6203 15.3376 38.723 15.3376C38.8257 15.3376 38.9274 15.3174 39.0223 15.2781C39.1172 15.2387 39.2034 15.1811 39.2759 15.1084L41.6251 12.7597C41.8066 12.5782 42.0221 12.4343 42.2592 12.3361C42.4964 12.238 42.7505 12.1876 43.0072 12.1877H43.8267" stroke="#939598" stroke-width="0.351305" stroke-linecap="round" stroke-linejoin="round"/>
<path d="M33.4219 19.1449H34.4298C34.9482 19.1451 35.4455 18.9394 35.8123 18.573L38.17 16.2152C38.3167 16.0687 38.5156 15.9863 38.723 15.9863C38.9303 15.9863 39.1292 16.0687 39.2759 16.2152L41.6251 18.5644C41.9917 18.9308 42.4889 19.1365 43.0072 19.1363H43.8267" stroke="#939598" stroke-width="0.351305" stroke-linecap="round" stroke-linejoin="round"/>
<path d="M15.0834 20.6509C14.8348 20.6518 14.5884 20.6035 14.3585 20.5086C14.1287 20.4137 13.9199 20.2742 13.7442 20.0982L11.8098 18.1625C11.7413 18.0971 11.6503 18.0605 11.5556 18.0605C11.461 18.0605 11.3699 18.0971 11.3015 18.1625L9.36052 20.1035C9.18498 20.2798 8.97625 20.4196 8.74639 20.5147C8.51652 20.6099 8.27008 20.6585 8.0213 20.6579H7.64258L10.0939 23.1092C10.4615 23.476 10.9597 23.6821 11.479 23.6821C11.9984 23.6821 12.4966 23.476 12.8642 23.1092L15.3204 20.6526L15.0834 20.6509Z" fill="#32BCAD"/>
<path d="M8.02171 13.8103C8.27049 13.8096 8.51694 13.8582 8.74681 13.9534C8.97668 14.0486 9.18541 14.1883 9.36093 14.3647L11.3019 16.3061C11.3694 16.3733 11.4608 16.4111 11.556 16.4111C11.6513 16.4111 11.7427 16.3733 11.8102 16.3061L13.7442 14.372C13.9196 14.1955 14.1283 14.0555 14.3582 13.9603C14.5881 13.865 14.8346 13.8164 15.0834 13.8172H15.3163L12.8601 11.361C12.6782 11.1791 12.4623 11.0347 12.2246 10.9363C11.987 10.8378 11.7322 10.7871 11.475 10.7871C11.2177 10.7871 10.9629 10.8378 10.7253 10.9363C10.4876 11.0347 10.2717 11.1791 10.0898 11.361L7.64258 13.8103H8.02171Z" fill="#32BCAD"/>
<path d="M17.3484 15.8492L15.8642 14.3649C15.8307 14.3786 15.7949 14.3858 15.7588 14.3862H15.0838C14.7326 14.3871 14.396 14.5265 14.147 14.7743L12.213 16.7071C12.0388 16.881 11.8028 16.9786 11.5566 16.9786C11.3105 16.9786 11.0745 16.881 10.9003 16.7071L8.9589 14.7669C8.71004 14.519 8.37337 14.3794 8.02211 14.3784H7.19357C7.15943 14.3776 7.12568 14.3709 7.09389 14.3584L5.60024 15.8492C5.23338 16.2168 5.02734 16.715 5.02734 17.2344C5.02734 17.7537 5.23338 18.2519 5.60024 18.6195L7.09062 20.1099C7.12235 20.0972 7.15613 20.0904 7.1903 20.0899H8.02211C8.37336 20.0889 8.71002 19.9492 8.9589 19.7014L10.8999 17.7604C11.2508 17.4098 11.8624 17.4098 12.213 17.7604L14.147 19.694C14.396 19.9418 14.7326 20.0813 15.0838 20.0821H15.7588C15.7949 20.0824 15.8307 20.0896 15.8642 20.1034L17.3484 18.6191C17.5304 18.4373 17.6747 18.2213 17.7732 17.9836C17.8716 17.746 17.9223 17.4912 17.9223 17.234C17.9223 16.9767 17.8716 16.7219 17.7732 16.4843C17.6747 16.2466 17.5304 16.0307 17.3484 15.8488" fill="#32BCAD"/>
<path d="M23.107 22.0901C22.9843 22.0955 22.8626 22.114 22.7438 22.1453V22.629C22.8347 22.6608 22.9303 22.6769 23.0265 22.6764C23.2692 22.6764 23.384 22.5947 23.384 22.381C23.384 22.18 23.29 22.0901 23.107 22.0901ZM22.6621 22.9889V22.0317H22.7287L22.7356 22.0725C22.8594 22.0396 22.9861 22.0193 23.114 22.0117C23.2025 22.0054 23.2904 22.0309 23.362 22.0836C23.4437 22.1514 23.4714 22.2609 23.4714 22.3802C23.4714 22.4995 23.4306 22.6228 23.3162 22.6878C23.2289 22.7314 23.1322 22.7528 23.0347 22.7503C22.9361 22.7497 22.8381 22.7347 22.7438 22.7058V22.9873L22.6621 22.9889Z" fill="#939598"/>
<path d="M24.0805 22.0865C23.8383 22.0865 23.73 22.1625 23.73 22.3761C23.73 22.5825 23.8366 22.6756 24.0805 22.6756C24.3244 22.6756 24.4298 22.6004 24.4298 22.3872C24.4298 22.1809 24.3232 22.0865 24.0805 22.0865ZM24.3927 22.6756C24.311 22.7336 24.2039 22.7504 24.0805 22.7504C23.9572 22.7504 23.8464 22.7324 23.7676 22.6756C23.6789 22.6131 23.6426 22.5122 23.6426 22.3819C23.6426 22.2515 23.6789 22.1502 23.7676 22.0865C23.8464 22.0297 23.9547 22.0117 24.0805 22.0117C24.2064 22.0117 24.3122 22.0297 24.3927 22.0865C24.4826 22.1502 24.5173 22.254 24.5173 22.3802C24.5173 22.5065 24.4813 22.6131 24.3927 22.6756Z" fill="#939598"/>
<path d="M25.5416 22.7311L25.2711 22.1505H25.2658L24.9994 22.7311H24.9247L24.6387 22.0312H24.7286L24.9684 22.6187H24.9741L25.2347 22.0312H25.3095L25.5767 22.6187H25.5824L25.8165 22.0312H25.9052L25.6167 22.7311H25.5416Z" fill="#939598"/>
<path d="M26.4247 22.0857C26.2 22.0857 26.124 22.1858 26.1101 22.3309H26.7393C26.7324 22.1715 26.6506 22.0857 26.4247 22.0857ZM26.4219 22.7513C26.2874 22.7513 26.2 22.7317 26.1306 22.6736C26.0489 22.603 26.0215 22.5004 26.0215 22.3828C26.0215 22.2651 26.0587 22.1511 26.1518 22.0833C26.2333 22.0321 26.3286 22.0074 26.4247 22.0126C26.5227 22.0067 26.6202 22.0303 26.7046 22.0804C26.8055 22.1482 26.8251 22.2675 26.8251 22.4032H26.1081C26.111 22.5474 26.1579 22.6749 26.4296 22.6749C26.5511 22.6717 26.6721 22.658 26.7912 22.634V22.7075C26.6701 22.7325 26.5471 22.7468 26.4235 22.7504" fill="#939598"/>
<path d="M27.0605 22.7316V22.0317H27.1267L27.1337 22.0726C27.282 22.035 27.3514 22.0117 27.4818 22.0117H27.4916V22.0893H27.472C27.3625 22.0893 27.2959 22.1045 27.1423 22.1445V22.7308L27.0605 22.7316Z" fill="#939598"/>
<path d="M27.9657 22.0857C27.7414 22.0857 27.665 22.1858 27.6512 22.3309H28.2803C28.2734 22.1715 28.1917 22.0857 27.9657 22.0857ZM27.9629 22.7513C27.8285 22.7513 27.7414 22.7317 27.672 22.6736C27.5903 22.603 27.5625 22.5004 27.5625 22.3828C27.5625 22.2651 27.6001 22.1511 27.6928 22.0833C27.7743 22.0322 27.8697 22.0075 27.9657 22.0126C28.0637 22.0067 28.1612 22.0303 28.2456 22.0804C28.3469 22.1482 28.3682 22.2675 28.3682 22.4032H27.6483C27.6512 22.5474 27.6981 22.6749 27.9698 22.6749C28.0914 22.6717 28.2125 22.658 28.3318 22.634V22.7075C28.2107 22.7324 28.0877 22.7468 27.9641 22.7504" fill="#939598"/>
<path d="M29.2628 22.1338C29.1719 22.1021 29.0763 22.0862 28.9801 22.0869C28.7374 22.0869 28.6226 22.1686 28.6226 22.3822C28.6226 22.5845 28.717 22.6731 28.8996 22.6731C29.0222 22.6674 29.1439 22.6492 29.2628 22.6188V22.1338ZM29.2783 22.7311L29.271 22.6903C29.1473 22.7235 29.0205 22.7441 28.8926 22.7516C28.8039 22.7582 28.7158 22.7326 28.6446 22.6793C28.5629 22.6114 28.5352 22.5019 28.5352 22.3831C28.5352 22.258 28.576 22.1404 28.6904 22.0766C28.7778 22.0321 28.875 22.0102 28.9731 22.0129C29.0712 22.0143 29.1687 22.0291 29.2628 22.057V21.7363H29.3445V22.7311H29.2783Z" fill="#939598"/>
<path d="M30.5426 22.0897C30.4199 22.0951 30.2981 22.1136 30.1794 22.1449V22.6274C30.27 22.6601 30.3657 22.6766 30.4621 22.676C30.7048 22.676 30.8196 22.5943 30.8196 22.3806C30.8196 22.1796 30.7256 22.0897 30.5426 22.0897ZM30.7517 22.6882C30.6646 22.7318 30.5681 22.7532 30.4707 22.7507C30.3641 22.7501 30.2583 22.7323 30.1573 22.698L30.1532 22.7311H30.0977V21.7363H30.1794V22.0701C30.3006 22.0391 30.4246 22.0197 30.5495 22.0121C30.6381 22.0059 30.726 22.0314 30.7975 22.084C30.8792 22.1518 30.907 22.2613 30.907 22.3806C30.907 22.4999 30.8661 22.6233 30.7517 22.6882Z" fill="#939598"/>
<path d="M31.0164 22.9989V22.9229C31.0573 22.927 31.0941 22.9299 31.1202 22.9299C31.2215 22.9299 31.2836 22.9005 31.3392 22.7857L31.3657 22.7301L30.998 22.0303H31.0928L31.4062 22.6345H31.4115L31.7093 22.0303H31.8025L31.4086 22.8163C31.3367 22.9589 31.2591 23.0059 31.1161 23.0059C31.0824 23.0057 31.0487 23.0034 31.0152 22.9989" fill="#939598"/>
<path d="M32.9318 22.3321H32.6605V22.5773H32.9318C33.1189 22.5773 33.1896 22.5564 33.1896 22.4547C33.1896 22.3452 33.0924 22.3321 32.9302 22.3321M32.8811 21.9367H32.6597V22.1859H32.8828C33.067 22.1859 33.1406 22.1638 33.1406 22.06C33.1406 21.9489 33.0474 21.9375 32.8811 21.9375M33.3028 22.668C33.2027 22.7317 33.0821 22.7341 32.8619 22.7341H32.4473V21.7822H32.8521C33.0421 21.7822 33.1585 21.7847 33.2554 21.8431C33.2875 21.8623 33.3137 21.8901 33.3309 21.9234C33.3481 21.9567 33.3556 21.9941 33.3526 22.0314C33.3526 22.1311 33.3118 22.1977 33.2027 22.2423V22.2476C33.3252 22.2753 33.4037 22.3378 33.4037 22.4723C33.4067 22.5106 33.3989 22.5491 33.381 22.5832C33.3632 22.6174 33.336 22.6457 33.3028 22.6651" fill="#939598"/>
<path d="M34.2314 22.4372C34.1497 22.4302 34.068 22.4261 33.9793 22.4261C33.8367 22.4261 33.7865 22.4552 33.7865 22.5205C33.7865 22.5859 33.8273 22.6145 33.9376 22.6145C34.0367 22.6112 34.1352 22.5975 34.2314 22.5736V22.4372ZM34.2722 22.7309L34.2669 22.6901C34.143 22.725 34.0156 22.7455 33.887 22.7513C33.8127 22.7564 33.7387 22.7384 33.6749 22.6999C33.6476 22.6769 33.6263 22.6475 33.6131 22.6143C33.5998 22.581 33.595 22.5451 33.599 22.5095C33.6031 22.474 33.6159 22.4401 33.6362 22.4107C33.6566 22.3813 33.6839 22.3574 33.7158 22.3412C33.7893 22.3064 33.8878 22.3036 33.9781 22.3036C34.0512 22.3036 34.1497 22.3077 34.2314 22.3134V22.3007C34.2314 22.1912 34.1595 22.1553 33.9626 22.1553C33.8866 22.1553 33.7934 22.1594 33.7048 22.1675V22.0262C33.8032 22.018 33.9143 22.0127 34.0059 22.0127C34.1284 22.0127 34.2539 22.0221 34.3327 22.0777C34.4115 22.1332 34.4283 22.2137 34.4283 22.3175V22.7317L34.2722 22.7309Z" fill="#939598"/>
<path d="M35.3423 22.7309V22.3448C35.3423 22.2173 35.2774 22.1716 35.161 22.1716C35.0643 22.1759 34.9684 22.1907 34.875 22.2157V22.7313H34.6797V22.031H34.839L34.846 22.0756C34.9678 22.0397 35.0934 22.0183 35.2202 22.0118C35.3063 22.005 35.3919 22.0306 35.46 22.0837C35.5152 22.1336 35.536 22.203 35.536 22.3027V22.7309H35.3423Z" fill="#939598"/>
<path d="M36.0882 22.7504C35.9979 22.7504 35.8994 22.7377 35.8275 22.6768C35.7417 22.6074 35.7168 22.4983 35.7168 22.3802C35.7168 22.2695 35.7527 22.1486 35.8594 22.0808C35.9468 22.024 36.0547 22.0117 36.167 22.0117C36.2487 22.0117 36.3264 22.017 36.4121 22.0252V22.1751C36.3415 22.1682 36.2569 22.1629 36.1891 22.1629C36.0032 22.1629 35.9158 22.2209 35.9158 22.3819C35.9158 22.5326 35.9811 22.598 36.1335 22.598C36.2323 22.5948 36.3306 22.5827 36.4273 22.562V22.7058C36.3154 22.7319 36.2013 22.7468 36.0865 22.7504" fill="#939598"/>
<path d="M37.0057 22.1584C36.8198 22.1584 36.7381 22.2168 36.7381 22.3761C36.7381 22.5355 36.8198 22.6033 37.0057 22.6033C37.1916 22.6033 37.2705 22.5465 37.2705 22.3872C37.2705 22.2278 37.1916 22.1584 37.0057 22.1584ZM37.3411 22.6768C37.2553 22.7348 37.143 22.7504 37.0057 22.7504C36.8684 22.7504 36.7536 22.7336 36.6691 22.6768C36.5718 22.6131 36.5371 22.5077 36.5371 22.3819C36.5371 22.256 36.5718 22.1486 36.6691 22.0848C36.7536 22.0281 36.8656 22.0117 37.0057 22.0117C37.1458 22.0117 37.2553 22.0281 37.3411 22.0848C37.438 22.1486 37.4715 22.2556 37.4715 22.3802C37.4715 22.5048 37.4367 22.6131 37.3411 22.6768Z" fill="#939598"/>
<path d="M38.5984 22.751C38.4807 22.751 38.3533 22.7314 38.2577 22.6525C38.1441 22.5581 38.1094 22.4127 38.1094 22.2562C38.1094 22.1161 38.1539 21.9498 38.3018 21.853C38.417 21.7782 38.5596 21.7627 38.7038 21.7627C38.8092 21.7627 38.9175 21.7696 39.0351 21.7794V21.9498C38.9342 21.9416 38.8092 21.9347 38.7124 21.9347C38.4419 21.9347 38.3271 22.0372 38.3271 22.2562C38.3271 22.4752 38.4338 22.579 38.6331 22.579C38.7756 22.5741 38.9172 22.555 39.056 22.5222V22.6913C38.9058 22.726 38.7525 22.746 38.5984 22.751Z" fill="#939598"/>
<path d="M39.6317 22.1366C39.4683 22.1366 39.407 22.195 39.3944 22.3H39.8658C39.8601 22.1864 39.7935 22.1366 39.6317 22.1366ZM39.6023 22.7494C39.4875 22.7494 39.3833 22.7355 39.3057 22.6718C39.2281 22.608 39.1934 22.4985 39.1934 22.3793C39.1934 22.2726 39.2281 22.1533 39.3253 22.0839C39.4111 22.023 39.5206 22.0107 39.6317 22.0107C39.7314 22.0107 39.8491 22.0218 39.9349 22.0814C40.0472 22.1603 40.0574 22.2824 40.0574 22.4262H39.3931C39.3972 22.5333 39.454 22.6023 39.6509 22.6023C39.776 22.5996 39.9007 22.5876 40.0239 22.5664V22.7036C39.8848 22.7301 39.7438 22.7454 39.6023 22.7494Z" fill="#939598"/>
<path d="M40.9263 22.7309V22.3448C40.9263 22.2173 40.8614 22.1716 40.7449 22.1716C40.6483 22.1759 40.5524 22.1907 40.459 22.2157V22.7313H40.2637V22.031H40.423L40.43 22.0756C40.5518 22.0397 40.6774 22.0183 40.8042 22.0118C40.8903 22.005 40.9759 22.0306 41.044 22.0837C41.0991 22.1336 41.12 22.203 41.12 22.3027V22.7309H40.9263Z" fill="#939598"/>
<path d="M41.6778 22.7508C41.5834 22.7508 41.4976 22.7243 41.4506 22.6507C41.4121 22.5872 41.3942 22.5133 41.3992 22.4391V22.1768H41.2578V22.0314H41.3992L41.42 21.8193H41.5924V22.0314H41.8682V22.1768H41.5924V22.4015C41.5898 22.4467 41.5963 22.492 41.6116 22.5347C41.6325 22.5817 41.6782 22.5997 41.7395 22.5997C41.7864 22.5988 41.8331 22.5942 41.8792 22.5858V22.7259C41.8127 22.7403 41.745 22.7486 41.677 22.7508" fill="#939598"/>
<path d="M42.0605 22.7311V22.0313H42.2199L42.2268 22.0758C42.3386 22.0379 42.4553 22.0164 42.5733 22.0121C42.5816 22.0116 42.5899 22.0116 42.5982 22.0121V22.1816C42.5761 22.1816 42.5496 22.1816 42.5304 22.1816C42.4377 22.182 42.3455 22.1941 42.2558 22.2176V22.7344L42.0605 22.7311Z" fill="#939598"/>
<path d="M43.3086 22.4372C43.2269 22.4302 43.1452 22.4261 43.0561 22.4261C42.9136 22.4261 42.8637 22.4552 42.8637 22.5205C42.8637 22.5859 42.9046 22.6145 43.0145 22.6145C43.1137 22.6112 43.2123 22.5975 43.3086 22.5736V22.4372ZM43.3495 22.7309L43.3438 22.6901C43.2199 22.725 43.0924 22.7455 42.9638 22.7513C42.8895 22.7564 42.8155 22.7384 42.7518 22.6999C42.726 22.6801 42.7055 22.6544 42.692 22.6249C42.6784 22.5955 42.6723 22.5631 42.6741 22.5307C42.6723 22.4909 42.6825 22.4514 42.7036 22.4175C42.7247 22.3837 42.7556 22.357 42.7922 22.3412C42.8658 22.3064 42.9638 22.3036 43.0541 22.3036C43.1276 22.3036 43.2261 22.3077 43.3078 22.3134V22.3007C43.3078 22.1912 43.2355 22.1553 43.039 22.1553C42.9626 22.1553 42.8698 22.1594 42.7812 22.1675V22.0262C42.8796 22.018 42.9904 22.0127 43.0819 22.0127C43.2044 22.0127 43.3299 22.0221 43.4087 22.0777C43.4876 22.1332 43.5043 22.2137 43.5043 22.3175V22.7317L43.3495 22.7309Z" fill="#939598"/>
<path d="M43.7539 21.7363H43.9496V22.7311H43.7539V21.7363Z" fill="#939598"/>
</g>
<defs>
<clipPath id="clip0_355_75183">
<rect width="38.9251" height="13.8375" fill="white" transform="translate(5.02734 9.84375)"/>
</clipPath>
</defs>
</svg>
