<svg width="50" height="34" viewBox="0 0 50 34" fill="none" xmlns="http://www.w3.org/2000/svg">
<rect x="1.27539" y="0.5" width="47.592" height="33" rx="2.5" fill="white"/>
<rect x="1.27539" y="0.5" width="47.592" height="33" rx="2.5" stroke="#CCCCCC"/>
<path d="M25.2909 13.2676C27.1612 13.2676 28.6774 14.7009 28.6774 16.4716V16.4736C28.6774 18.2443 27.1612 19.6796 25.2909 19.6796C23.4205 19.6796 21.9043 18.2443 21.9043 16.4736V16.4716C21.9043 14.7009 23.4205 13.2676 25.2909 13.2676Z" fill="#F47216"/>
<path d="M19.9733 13.3096C20.5074 13.3096 20.9554 13.4181 21.5009 13.6798V15.0628C20.9844 14.5849 20.5364 14.3848 19.9438 14.3848C18.7792 14.3848 17.8635 15.2975 17.8635 16.4547C17.8635 17.6749 18.751 18.5333 20.0016 18.5333C20.5645 18.5333 21.0042 18.3436 21.5009 17.8734V19.2571C20.9361 19.5089 20.4785 19.6082 19.9438 19.6082C18.0531 19.6082 16.5838 18.2346 16.5838 16.4633C16.5837 14.7108 18.0921 13.3096 19.9733 13.3096ZM14.1026 13.3476C14.8006 13.3476 15.4391 13.5738 15.9731 14.0159L15.3234 14.8212C14.9999 14.478 14.694 14.3333 14.3221 14.3333C13.7869 14.3333 13.3971 14.6217 13.3971 15.0012C13.3971 15.3267 13.6158 15.4989 14.361 15.7599C15.7734 16.2488 16.192 16.6824 16.192 17.6398C16.192 18.8065 15.2867 19.6186 13.9964 19.6186C13.0515 19.6186 12.3647 19.2664 11.7925 18.4715L12.5946 17.7403C12.8806 18.2635 13.3577 18.544 13.95 18.544C14.5039 18.544 14.914 18.1824 14.914 17.6941C14.914 17.4409 14.7897 17.224 14.5417 17.0705C14.4168 16.9979 14.1695 16.8895 13.6834 16.7273C12.5171 16.3299 12.1171 15.905 12.1171 15.0748C12.117 14.0884 12.9763 13.3476 14.1026 13.3476ZM28.2919 13.4527H29.6482L31.3459 17.5006L33.0656 13.4527H34.4117L31.6615 19.6341H30.9933L28.2919 13.4527ZM10.0832 13.462H11.3249V19.4886H10.0832V13.462ZM34.973 13.462H38.4945V14.4831H36.2139V15.8208H38.4105V16.8415H36.2139V18.4682H38.4945V19.4886H34.973V13.462ZM41.9607 16.9497C42.8959 16.7695 43.4105 16.164 43.4105 15.2413C43.4105 14.113 42.5898 13.462 41.1577 13.462H39.3167V19.4887H40.5569V17.0675H40.719L42.4376 19.4886H43.9646L41.9607 16.9497ZM40.9198 16.2363H40.557V14.4112H40.9394C41.7126 14.4112 42.1329 14.7181 42.1329 15.3046C42.1331 15.9105 41.7127 16.2363 40.9198 16.2363ZM6.09405 13.462H4.27148V19.4886H6.08456C7.04852 19.4886 7.74487 19.2732 8.35592 18.7928C9.08219 18.2239 9.51158 17.3664 9.51158 16.4795C9.51164 14.7009 8.10782 13.462 6.09405 13.462ZM7.54471 17.9893C7.15456 18.3227 6.64779 18.4682 5.84553 18.4682H5.5122V14.4831H5.84547C6.64773 14.4831 7.13449 14.6192 7.54465 14.9705C7.9741 15.3326 8.23242 15.8935 8.23242 16.4708C8.23248 17.0491 7.9741 17.6273 7.54471 17.9893Z" fill="black"/>
</svg>
