<svg width="49" height="34" viewBox="0 0 49 34" fill="none" xmlns="http://www.w3.org/2000/svg">
<rect x="0.867188" y="0.5" width="47.592" height="33" rx="2.5" fill="#016FD0"/>
<rect x="0.867188" y="0.5" width="47.592" height="33" rx="2.5" stroke="#CCCCCC"/>
<g clip-path="url(#clip0_355_75181)">
<path d="M13.5098 23.6016V17.9297H19.5485L20.1964 18.77L20.8662 17.9297H42.7717V23.2104C42.7717 23.2104 42.2002 23.5943 41.5378 23.6016H29.4056L28.674 22.707V23.6016H26.2825V22.0731C26.2825 22.0731 25.9549 22.2868 25.2488 22.2868H24.4334V23.6016H20.8116L20.1637 22.7432L19.5085 23.6016H13.5098Z" fill="white"/>
<path d="M6.46289 13.6524L7.82425 10.4941H10.1793L10.951 12.2616V10.4941H13.8776L14.3362 11.7727L14.7803 10.4941H27.9171V11.1352C27.9171 11.1352 28.6086 10.4941 29.7407 10.4941L34.0031 10.5086L34.7639 12.2544V10.4941H37.2136L37.887 11.4974V10.4941H40.3586V16.1696H37.887L37.2427 15.1628V16.1696H33.6464L33.286 15.275H32.3178L31.9611 16.1696H29.5223C28.5468 16.1696 27.9207 15.5394 27.9207 15.5394V16.1696H24.237L23.5054 15.275V16.1696H9.82989L9.46953 15.275H8.50493L8.14457 16.1696H6.46289V13.6524Z" fill="white"/>
<path d="M8.30526 11.1973L6.4707 15.4457H7.66462L8.00314 14.5946H9.97238L10.3109 15.4457H11.5339L9.69938 11.1973H8.30526ZM8.98594 12.1824L9.58654 13.6674H8.38534L8.98594 12.1824Z" fill="#016FD0"/>
<path d="M11.6562 15.4418V11.1934L13.3561 11.2006L14.3426 13.9388L15.3072 11.1934H16.9925V15.4418H15.926V12.3125L14.7939 15.4418H13.8585L12.7228 12.3125V15.4418H11.6562Z" fill="#016FD0"/>
<path d="M17.7246 15.4418V11.1934H21.2081V12.1423H18.8057V12.8703H21.1498V13.7649H18.802V14.5183H21.2044V15.4418H17.7246Z" fill="#016FD0"/>
<path d="M21.8242 11.1973V15.4457H22.8907V13.9354H23.3385L24.6197 15.4457H25.9229L24.5178 13.8811C25.0929 13.834 25.6899 13.3414 25.6899 12.5772C25.6899 11.6826 24.9837 11.2009 24.1975 11.2009L21.8242 11.1973ZM22.8907 12.1462H24.1101C24.4013 12.1462 24.6161 12.3744 24.6161 12.5917C24.6161 12.8742 24.3395 13.0372 24.1247 13.0372H22.8907V12.1462Z" fill="#016FD0"/>
<path d="M27.2153 15.4418H26.127V11.1934H27.2153V15.4418Z" fill="#016FD0"/>
<path d="M29.7983 15.4421H29.5617C28.4223 15.4421 27.7344 14.5511 27.7344 13.3378C27.7344 12.0955 28.4187 11.1973 29.8529 11.1973H31.0322V12.2042H29.8128C29.2304 12.2042 28.8155 12.6569 28.8155 13.3487C28.8155 14.1708 29.2887 14.5149 29.9657 14.5149H30.246L29.7983 15.4421Z" fill="#016FD0"/>
<path d="M32.1217 11.197L30.2871 15.4418H31.481L31.8195 14.5907H33.7888L34.1273 15.4418H35.3467L33.5121 11.1934L32.1217 11.197ZM32.7987 12.1821L33.3993 13.6671H32.1981L32.7987 12.1821Z" fill="#016FD0"/>
<path d="M35.4707 15.4418V11.1934H36.8284L38.5611 13.8627V11.1934H39.6276V15.4418H38.3135L36.5372 12.7037V15.4418H35.4707Z" fill="#016FD0"/>
<path d="M14.2422 22.8735V18.625H17.7257V19.5739H15.3233V20.3019H17.6711V21.1965H15.3233V21.9499H17.7257V22.8735H14.2422Z" fill="#016FD0"/>
<path d="M31.3027 22.8735V18.625H34.7862V19.5739H32.3838V20.3019H34.7207V21.1965H32.3838V21.9499H34.7862V22.8735H31.3027Z" fill="#016FD0"/>
<path d="M17.8604 22.8735L19.5566 20.7764L17.8203 18.625H19.1635L20.1972 19.9542L21.2346 18.625H22.5268L20.8124 20.7474L22.5123 22.8699H21.1691L20.1645 21.5624L19.1853 22.8699L17.8604 22.8735Z" fill="#016FD0"/>
<path d="M22.6387 18.6289V22.8774H23.7343V21.5373H24.8591C25.8091 21.5373 26.5298 21.0338 26.5298 20.0596C26.5298 19.2519 25.9656 18.6325 24.9974 18.6325H22.6387V18.6289ZM23.7343 19.5887H24.9173C25.2231 19.5887 25.4451 19.777 25.4451 20.0777C25.4451 20.3602 25.2267 20.5666 24.9137 20.5666H23.7343V19.5887Z" fill="#016FD0"/>
<path d="M26.9883 18.625V22.8735H28.0548V21.3631H28.5025L29.7838 22.8735H31.0869L29.6819 21.3088C30.257 21.2617 30.854 20.7692 30.854 20.0049C30.854 19.1103 30.1478 18.6286 29.3616 18.6286L26.9883 18.625ZM28.0584 19.5776H29.2778C29.569 19.5776 29.7838 19.8057 29.7838 20.023C29.7838 20.3056 29.5072 20.4685 29.2924 20.4685H28.0584V19.5776Z" fill="#016FD0"/>
<path d="M35.2812 22.8738V21.9502H37.4178C37.7345 21.9502 37.8692 21.78 37.8692 21.5952C37.8692 21.4178 37.7345 21.2367 37.4178 21.2367H36.4532C35.616 21.2367 35.1465 20.7296 35.1465 19.9654C35.1465 19.2845 35.576 18.6289 36.8209 18.6289H38.8993L38.4516 19.5851H36.6534C36.3113 19.5851 36.2057 19.7662 36.2057 19.9364C36.2057 20.1139 36.3368 20.3058 36.5988 20.3058H37.6108C38.5462 20.3058 38.9503 20.8346 38.9503 21.5264C38.9503 22.2689 38.4989 22.8774 37.5598 22.8774H35.2812V22.8738Z" fill="#016FD0"/>
<path d="M39.1972 22.8738V21.9502H41.3339C41.6505 21.9502 41.7852 21.78 41.7852 21.5952C41.7852 21.4178 41.6505 21.2367 41.3339 21.2367H40.3693C39.5321 21.2367 39.0625 20.7296 39.0625 19.9654C39.0625 19.2845 39.492 18.6289 40.7369 18.6289H42.8153L42.3676 19.5851H40.5695C40.2273 19.5851 40.1217 19.7662 40.1217 19.9364C40.1217 20.1139 40.2528 20.3058 40.5149 20.3058H41.5268C42.4623 20.3058 42.8663 20.8346 42.8663 21.5264C42.8663 22.2689 42.4149 22.8774 41.4758 22.8774H39.1972V22.8738Z" fill="#016FD0"/>
</g>
<defs>
<clipPath id="clip0_355_75181">
<rect width="36.4" height="13.104" fill="white" transform="translate(6.46289 10.4961)"/>
</clipPath>
</defs>
</svg>
