<svg width="49" height="34" viewBox="0 0 49 34" fill="none" xmlns="http://www.w3.org/2000/svg">
<rect x="0.683594" y="0.5" width="47.592" height="33" rx="2.5" fill="white"/>
<rect x="0.683594" y="0.5" width="47.592" height="33" rx="2.5" stroke="#CCCCCC"/>
<path fill-rule="evenodd" clip-rule="evenodd" d="M9.66541 22.8521C9.66541 23.3808 10.0434 23.4427 10.3793 23.4427C11.8622 23.4427 12.349 22.3235 12.349 21.3003C12.349 20.0162 11.5255 19.0897 10.2011 19.0897C9.91915 19.0897 9.7895 19.1099 9.66541 19.1171V22.8523V22.8521ZM25.9041 18.4197C29.4527 18.4371 32.6915 15.5251 32.6915 11.9821C32.6915 8.10839 29.4526 5.43068 25.9039 5.43164H22.85C19.2593 5.43049 16.3036 8.10896 16.3036 11.9821C16.3036 15.5257 19.2595 18.4371 22.85 18.4197H25.9041ZM24.2126 15.4318V8.39733C25.6259 8.93958 26.629 10.3088 26.6317 11.9145C26.6292 13.5201 25.6259 14.8886 24.2126 15.4318ZM19.0988 11.9145C19.102 10.3099 20.1038 8.94168 21.5162 8.39752V15.4306C20.1038 14.887 19.102 13.5195 19.0988 11.9147V11.9145ZM22.8648 5.96891C19.5833 5.97006 16.9242 8.6309 16.9237 11.9147C16.9244 15.198 19.5835 17.8583 22.8648 17.8592C26.147 17.8581 28.8064 15.198 28.8068 11.9147C28.8064 8.6309 26.147 5.97006 22.8648 5.96891ZM40.3374 25.4478H40.3839C40.4346 25.4478 40.4582 25.4093 40.4582 25.3476C40.4582 25.2848 40.4216 25.2629 40.381 25.2629H40.3372V25.4478H40.3374ZM40.2048 25.6553V25.636C40.2531 25.6289 40.2621 25.6306 40.2621 25.6005V25.3093C40.2621 25.2685 40.2577 25.2543 40.2064 25.2566V25.2367H40.4078C40.477 25.2367 40.5405 25.2696 40.5405 25.3409C40.5405 25.3995 40.5019 25.4427 40.4477 25.4597L40.5122 25.5498C40.5423 25.5902 40.5764 25.6289 40.599 25.6425V25.6551H40.522C40.4854 25.6551 40.453 25.5777 40.3808 25.4739H40.3372V25.6044C40.3372 25.6302 40.3464 25.6287 40.3948 25.6356V25.655H40.2046L40.2048 25.6553ZM40.4006 25.7667C40.5767 25.7667 40.7116 25.617 40.7116 25.4478C40.7116 25.2783 40.5785 25.1269 40.4006 25.1269C40.224 25.1269 40.0888 25.2784 40.0888 25.4478C40.0888 25.6168 40.2238 25.7667 40.4006 25.7667ZM40.4006 25.0533C40.6258 25.0533 40.7939 25.2263 40.7939 25.4478C40.7939 25.6686 40.6258 25.84 40.4006 25.84C40.1759 25.84 40.007 25.6684 40.007 25.4478C40.007 25.2263 40.1757 25.0533 40.4006 25.0533ZM40.3079 27.7833C39.9787 27.7833 39.6499 27.7682 39.3224 27.7682C38.9936 27.7682 38.6649 27.7833 38.3355 27.7833H38.32V27.6388H38.3878C38.5232 27.6356 38.6511 27.6264 38.6527 27.4047V25.4844C38.6511 25.3024 38.5238 25.2899 38.3878 25.2876H38.32V25.1434H38.3355C38.5343 25.1434 38.7287 25.1577 38.9262 25.1577C39.1157 25.1577 39.3023 25.1434 39.4942 25.1434H39.5095V25.2878H39.4001C39.2557 25.2917 39.1653 25.2853 39.1625 25.4735V27.4014C39.1636 27.5407 39.2546 27.5781 39.3714 27.5948C39.4373 27.5994 39.5064 27.6021 39.5784 27.6021C39.6702 27.6021 39.7649 27.5977 39.8615 27.5873C40.0135 27.5695 40.1445 27.4815 40.209 27.3923C40.2663 27.3125 40.2994 27.21 40.3217 27.1286L40.3253 27.1163H40.4659L40.4626 27.1359C40.4203 27.3495 40.3691 27.5584 40.324 27.7711L40.3207 27.7839H40.3082L40.3079 27.7833ZM36.4283 26.6189H37.0814L36.7566 25.6184L36.4283 26.6189ZM38.2047 27.7835C38.0364 27.7768 37.8687 27.7684 37.6904 27.7684C37.5084 27.7684 37.3213 27.7766 37.1308 27.7835L37.1143 27.7841V27.639H37.1712C37.2581 27.639 37.3866 27.6187 37.387 27.5471C37.3878 27.5045 37.3543 27.4026 37.3125 27.2828L37.1706 26.8604H36.3464L36.2311 27.2378C36.1936 27.3656 36.1489 27.4639 36.1499 27.5245C36.1499 27.6162 36.2899 27.639 36.4134 27.639H36.4703V27.7841L36.4538 27.7835C36.3044 27.7768 36.1516 27.7684 36.0028 27.7684C35.869 27.7684 35.7347 27.7766 35.6003 27.7835L35.584 27.7841V27.639H35.6215C35.7609 27.6383 35.8776 27.5584 35.9318 27.4074L36.5293 25.6923C36.5773 25.5538 36.6444 25.3675 36.6775 25.219C36.7949 25.1784 36.9446 25.1039 37.0172 25.0587C37.027 25.055 37.0371 25.0502 37.0525 25.0502C37.0624 25.0493 37.0816 25.052 37.0932 25.0725C37.1044 25.1016 37.1155 25.1357 37.1277 25.1658L37.8147 27.1198C37.8593 27.2507 37.9041 27.3888 37.9523 27.4999C37.9962 27.5992 38.0642 27.6381 38.1835 27.6392H38.2222V27.7843L38.2053 27.7837L38.2047 27.7835ZM35.249 27.8395L35.0945 27.8341L33.1996 25.7211V27.2185C33.204 27.5432 33.2536 27.635 33.5339 27.6385H33.6145V27.7837H33.5983C33.4366 27.7837 33.2763 27.7686 33.1166 27.7686C32.9493 27.7686 32.7777 27.7837 32.608 27.7837H32.5927V27.6385H32.661C32.9071 27.6377 32.978 27.4792 32.9807 27.1813V25.6076C32.9803 25.4085 32.8173 25.288 32.6568 25.288H32.5925V25.1437H32.6078C32.7509 25.1437 32.8968 25.1581 33.0375 25.1581C33.1482 25.1581 33.2559 25.1437 33.3824 25.1493L35.0233 26.9975V25.6233C35.0223 25.3262 34.8235 25.2903 34.7142 25.288H34.6159V25.1437H34.633C34.8086 25.1437 34.9809 25.1581 35.1546 25.1581C35.3075 25.1581 35.4599 25.1437 35.615 25.1437H35.6311V25.2882H35.5587C35.4051 25.2924 35.2462 25.3062 35.2429 25.7463V27.4469C35.2429 27.5772 35.2458 27.7073 35.2642 27.8216L35.2674 27.8398H35.2492L35.249 27.8395ZM31.1414 27.6592V27.6429C31.8517 27.6421 31.9747 27.02 31.9766 26.4752C31.9766 25.9335 31.6849 25.2853 31.0781 25.2842C30.4373 25.285 30.2479 25.8535 30.2465 26.3511C30.2469 27.0165 30.5503 27.6415 31.1416 27.6429V27.6592M29.6912 26.4821C29.6929 25.696 30.3003 25.0886 31.0853 25.0872C31.8872 25.088 32.5304 25.5867 32.5318 26.3921C32.531 27.2604 31.9075 27.8379 31.1045 27.8393C30.3057 27.8379 29.6929 27.2943 29.6912 26.4819V26.4821ZM29.596 27.7835C29.4156 27.7835 29.1921 27.7682 29.006 27.7682C28.8233 27.7682 28.603 27.7835 28.4569 27.7835H28.4408V27.639H28.509C28.6438 27.6367 28.7677 27.6251 28.7687 27.4425V25.4852C28.7679 25.3028 28.644 25.2903 28.509 25.2878H28.4408V25.1436H28.4569C28.603 25.1436 28.8273 25.1579 29.0092 25.1579C29.1954 25.1579 29.4194 25.1436 29.596 25.1436H29.6117V25.288H29.5439C29.4074 25.2903 29.2846 25.303 29.2833 25.4854V27.4426C29.2846 27.6254 29.4074 27.6371 29.5439 27.6394H29.6119V27.7839H29.5962L29.596 27.7835ZM27.6511 27.7835C27.5044 27.7835 27.243 27.7684 27.0423 27.7684C26.8192 27.7684 26.5576 27.7835 26.4111 27.7835H26.3946V27.639H26.4819C26.6876 27.6342 26.7703 27.6316 26.7755 27.3419L26.7751 25.3626H26.1797C25.9026 25.3672 25.9089 25.4139 25.848 25.6902L25.8452 25.7029H25.701L25.7033 25.6841C25.7191 25.5791 25.7371 25.4743 25.7484 25.3664C25.7638 25.2622 25.7709 25.1587 25.7709 25.0514V25.0347H25.8888L25.8921 25.0466C25.9179 25.1411 25.9865 25.1414 26.0819 25.1432C26.0886 25.1432 26.0943 25.1436 26.1008 25.1436H28.0281C28.131 25.1416 28.2066 25.1401 28.2129 25.0428L28.2141 25.025L28.2317 25.0282L28.3374 25.0451L28.3345 25.0614C28.3192 25.1614 28.305 25.2625 28.2938 25.3628C28.2863 25.4624 28.2863 25.5636 28.2863 25.664V25.6753L28.2754 25.6795L28.143 25.728L28.1425 25.7059C28.1325 25.5659 28.1179 25.3626 27.882 25.3626H27.2857V27.3342C27.2897 27.6159 27.4013 27.6354 27.5789 27.6392H27.6662V27.7837H27.6505L27.6511 27.7835ZM24.2375 26.6189H24.8913L24.5661 25.6178L24.2375 26.6189ZM26.0144 27.7835C25.8467 27.7762 25.6785 27.7682 25.5004 27.7682C25.3174 27.7682 25.1314 27.7762 24.9405 27.7835L24.9234 27.7841V27.6383H24.9809C25.0675 27.6383 25.1958 27.6187 25.196 27.5471C25.1967 27.5045 25.1634 27.402 25.122 27.2828L24.9801 26.8604H24.1563L24.0402 27.2378C24.0025 27.3652 23.9577 27.4639 23.9579 27.5248C23.959 27.616 24.0988 27.6381 24.2227 27.6381H24.2798V27.7839L24.2629 27.7833C24.1134 27.776 23.9611 27.768 23.8121 27.768C23.6785 27.768 23.5434 27.776 23.4098 27.7833L23.3925 27.7839V27.6381H23.4307C23.5701 27.6377 23.6859 27.5588 23.7397 27.407L24.3376 25.6919C24.3865 25.5534 24.4539 25.3672 24.486 25.2183C24.6031 25.1784 24.7532 25.1033 24.8252 25.0581C24.8355 25.0545 24.8457 25.0493 24.861 25.0493C24.8702 25.0487 24.8903 25.0514 24.9024 25.0713C24.9131 25.1016 24.9246 25.1351 24.9361 25.1654L25.6238 27.1194C25.6678 27.2503 25.7121 27.3884 25.7609 27.499C25.8042 27.5986 25.8729 27.6377 25.9928 27.6381H26.0311V27.7839L26.0141 27.7833L26.0144 27.7835ZM23.0586 27.8395L22.9046 27.8343L21.0093 25.7209V27.2179C21.014 27.5429 21.0631 27.6352 21.3448 27.639H21.4237V27.7835H21.4076C21.246 27.7835 21.0857 27.7682 20.9258 27.7682C20.7588 27.7682 20.5862 27.7835 20.4185 27.7835H20.4014V27.639H20.47C20.7164 27.6379 20.7875 27.479 20.7896 27.1803V25.6074C20.7892 25.4084 20.6264 25.2878 20.4669 25.2878H20.4012V25.1434H20.4183C20.5606 25.1434 20.7065 25.1581 20.8476 25.1581C20.9574 25.1581 21.0654 25.1434 21.1908 25.1483L22.8326 26.9977V25.6233C22.8316 25.3263 22.6326 25.2898 22.5241 25.288H22.4254V25.1436H22.4417C22.6181 25.1436 22.7901 25.1583 22.9647 25.1583C23.1168 25.1583 23.27 25.1436 23.4238 25.1436H23.4404V25.2882H23.3684C23.2143 25.2921 23.0557 25.306 23.0519 25.7463V27.4469C23.0519 27.5772 23.0551 27.7067 23.0741 27.8216L23.076 27.8398H23.0582L23.0586 27.8395ZM18.7491 26.4061C19.1189 26.4028 19.3052 26.2744 19.3087 25.84C19.3066 25.5137 19.1042 25.3114 18.7788 25.3101C18.6779 25.3101 18.6304 25.3193 18.5827 25.3235V26.4061H18.7491ZM20.3066 27.7837C20.1814 27.7837 20.0626 27.7686 19.9399 27.7686C19.8261 27.7686 19.7068 27.7837 19.5766 27.7774C19.2901 27.4014 19.0446 27 18.8033 26.5735H18.5827V27.3562C18.5867 27.6373 18.6997 27.6352 18.8724 27.6392H18.9561V27.7837H18.9393C18.7259 27.7837 18.509 27.7686 18.2971 27.7686C18.1189 27.7686 17.9436 27.7837 17.756 27.7837H17.7399V27.6392H17.8236C17.958 27.6381 18.0712 27.5798 18.0719 27.4539V25.5555C18.0691 25.2907 17.9394 25.2921 17.8234 25.288H17.7397V25.1436H17.7558C17.8768 25.1436 18.1072 25.1583 18.3349 25.1583C18.5578 25.1583 18.737 25.1436 18.9358 25.1436C19.4065 25.1445 19.8397 25.2746 19.8409 25.8171C19.8409 26.1543 19.6183 26.3649 19.3301 26.4825L19.9575 27.4221C20.0617 27.5772 20.127 27.616 20.3087 27.6392L20.3221 27.6411V27.7837H20.3064H20.3066ZM17.4576 27.7837C17.218 27.7837 16.7885 27.7684 16.4531 27.7684C16.1167 27.7684 15.6729 27.7837 15.4598 27.7837H15.4439V27.6392H15.5123C15.6475 27.6369 15.77 27.6252 15.7718 27.4426V25.4854C15.77 25.303 15.6475 25.2907 15.5121 25.288H15.4437V25.1437H15.4596C15.6875 25.1437 16.0761 25.1581 16.389 25.1581C16.7031 25.1581 17.0909 25.1437 17.3448 25.1437H17.3615L17.3611 25.1604C17.3582 25.2167 17.357 25.2832 17.357 25.3534C17.357 25.4825 17.3609 25.6237 17.3683 25.7303L17.3685 25.7439L17.3563 25.7475L17.2253 25.7816L17.2241 25.7624C17.2021 25.5201 17.1696 25.3438 16.785 25.3405H16.2819L16.2816 26.2863H16.7103C16.9254 26.2844 16.9639 26.1742 16.9892 25.9728L16.9905 25.9579H17.1339L17.1334 25.9749C17.1263 26.1204 17.1217 26.266 17.1217 26.4118C17.1217 26.553 17.1263 26.695 17.1334 26.8372L17.1339 26.8504L17.1205 26.8535L16.9907 26.8793L16.9894 26.8619C16.9639 26.6333 16.962 26.5086 16.7142 26.5057H16.2823V27.3604C16.2827 27.5871 16.4784 27.5862 16.7218 27.5871C17.1713 27.5846 17.3517 27.5626 17.4641 27.1432L17.4679 27.1282L17.4834 27.1311L17.6033 27.1617L17.5999 27.1777C17.551 27.375 17.5066 27.5729 17.4733 27.7707L17.4704 27.7839H17.4572L17.4576 27.7837ZM14.6727 27.7837C14.5258 27.7837 14.2646 27.7686 14.0637 27.7686C13.8399 27.7686 13.5788 27.7837 13.4321 27.7837H13.4166V27.6392H13.5034C13.7094 27.6344 13.792 27.6318 13.7966 27.342V25.3628H13.2006C12.9243 25.3675 12.9304 25.4141 12.8693 25.6904L12.8664 25.703H12.7226L12.7247 25.6837C12.74 25.5795 12.7588 25.4747 12.7699 25.3662C12.7852 25.2625 12.7923 25.1591 12.7923 25.0518V25.0351H12.9109L12.9137 25.047C12.939 25.1414 13.0081 25.1418 13.1033 25.1436H15.0488C15.1528 25.142 15.2287 25.1403 15.235 25.0428L15.2365 25.0251L15.2534 25.0284L15.3587 25.0453L15.3562 25.0615C15.3414 25.1616 15.3267 25.2627 15.3158 25.3629C15.3085 25.4626 15.3085 25.563 15.3085 25.6642V25.6755L15.2978 25.6797L15.1656 25.7281L15.1645 25.7061C15.1545 25.566 15.1396 25.3628 14.9039 25.3628H14.3077V27.3344C14.3113 27.616 14.4228 27.6356 14.6009 27.6394H14.6884V27.7839H14.6725L14.6727 27.7837ZM12.2751 27.8397L12.1209 27.8343L10.2261 25.7212V27.2187C10.2305 27.5434 10.28 27.6356 10.5611 27.6394H10.6411V27.7839H10.6245C10.463 27.7839 10.3022 27.7688 10.1428 27.7688C9.97565 27.7688 9.80406 27.7839 9.63477 27.7839H9.61849V27.6394H9.68743C9.93409 27.6379 10.0046 27.4794 10.0076 27.1815V25.608C10.0069 25.4093 9.84389 25.288 9.68379 25.288H9.61849V25.1437H9.63477C9.77763 25.1437 9.92356 25.1581 10.0639 25.1581C10.1752 25.1581 10.283 25.1437 10.409 25.1493L12.0502 26.9975V25.6233C12.0483 25.3262 11.8501 25.2903 11.7413 25.288H11.6425V25.1437H11.659C11.8352 25.1437 12.0073 25.1581 12.1818 25.1581C12.3339 25.1581 12.4869 25.1437 12.6412 25.1437H12.6575V25.2882H12.5855C12.4313 25.2924 12.2731 25.306 12.2687 25.7463V27.4469C12.2687 27.5772 12.2726 27.7073 12.2908 27.8211L12.2942 27.8398H12.2749L12.2751 27.8397ZM9.49344 27.7837C9.31266 27.7837 9.08917 27.7686 8.90341 27.7686C8.72052 27.7686 8.50086 27.7837 8.35398 27.7837H8.33789V27.6392H8.40607C8.54184 27.636 8.66498 27.6252 8.66651 27.4426V25.4854C8.66498 25.3024 8.54204 25.2905 8.40607 25.288H8.33789V25.1436H8.35398C8.50086 25.1436 8.72473 25.1583 8.90724 25.1583C9.09319 25.1583 9.31668 25.1436 9.49324 25.1436H9.50991V25.2882H9.44116C9.30538 25.2905 9.18167 25.3026 9.18071 25.4856V27.4428C9.18167 27.6256 9.30538 27.6364 9.44096 27.6396H9.50971V27.7841H9.49305L9.49344 27.7837ZM37.9625 22.8866C37.9625 23.1478 38.2095 23.5875 38.6693 23.5875C39.4038 23.5875 39.7123 22.8663 39.7123 22.2549C39.7123 21.5134 39.15 20.8956 38.6148 20.8956C38.3601 20.8956 38.1477 21.0608 37.9625 21.2187V22.8866ZM37.9625 21.019C38.2369 20.7858 38.6077 20.5247 38.9853 20.5247C39.7814 20.5247 40.2615 21.2189 40.2615 21.9669C40.2615 22.8663 39.6027 23.7661 38.6211 23.7661C38.1136 23.7661 37.8461 23.6013 37.6672 23.5258L37.4615 23.6833L37.3179 23.6082C37.3786 23.203 37.4136 22.8046 37.4136 22.3858V19.4331C37.4136 18.9867 37.3102 18.9731 37.0496 18.8976V18.7876C37.3246 18.6985 37.6124 18.5749 37.7564 18.4923C37.8319 18.4511 37.8867 18.4166 37.9077 18.4166C37.9489 18.4166 37.9623 18.4578 37.9623 18.5128V21.019H37.9625ZM36.5971 23.285C36.5971 23.4087 36.6721 23.4155 36.7888 23.4155C36.8713 23.4155 36.9739 23.4089 37.0636 23.4089V23.5534C36.7681 23.5808 36.2052 23.7251 36.0748 23.7661L36.0404 23.7454V23.1894C35.6292 23.5258 35.313 23.7661 34.8252 23.7661C34.4547 23.7661 34.0705 23.5258 34.0705 22.9493V21.1909C34.0705 21.0123 34.0431 20.8406 33.6594 20.8065V20.6759C33.9066 20.6692 34.4545 20.6282 34.5441 20.6282C34.6201 20.6282 34.6201 20.6759 34.6201 20.8272V22.5984C34.6201 22.8046 34.6201 23.3951 35.2169 23.3951C35.4499 23.3951 35.7588 23.2166 36.0469 22.9769V21.129C36.0469 20.992 35.7177 20.9169 35.4712 20.8481V20.7243C36.088 20.6831 36.473 20.6283 36.5415 20.6283C36.5969 20.6283 36.5969 20.6761 36.5969 20.7521V23.2854L36.5971 23.285ZM32.1905 23.4844H32.3204C32.513 23.4844 32.6505 23.4844 32.6505 23.2572V19.4329C32.6505 18.9865 32.5473 18.9729 32.2866 18.8974V18.7874C32.5611 18.6983 32.8491 18.5747 32.9933 18.4917C33.0686 18.4509 33.1237 18.4161 33.144 18.4161C33.1856 18.4161 33.1996 18.4576 33.1996 18.5126V23.257C33.1996 23.4842 33.3505 23.4842 33.5429 23.4842H33.659V23.6626C33.4263 23.6626 33.1858 23.649 32.9389 23.649C32.6921 23.649 32.4448 23.6557 32.1907 23.6626V23.4842L32.1905 23.4844ZM31.9431 20.1123H31.7719C31.6413 19.3095 31.0714 18.9865 30.3032 18.9865C29.5135 18.9865 28.3671 19.5151 28.3671 21.1631C28.3671 22.5507 29.3562 23.5461 30.4126 23.5461C31.0916 23.5461 31.6551 23.0796 31.7924 22.3582L31.9502 22.3992L31.7924 23.4019C31.504 23.5808 30.7284 23.7661 30.2753 23.7661C28.6697 23.7661 27.6541 22.7293 27.6541 21.1842C27.6541 19.7763 28.9096 18.7665 30.2548 18.7665C30.8105 18.7665 31.3462 18.9457 31.8743 19.1311L31.9431 20.1125V20.1123ZM23.7763 22.7082C23.8658 23.1612 24.14 23.5459 24.6414 23.5459C25.0458 23.5459 25.1965 23.2986 25.1965 23.0587C25.1965 22.2482 23.7011 22.509 23.7011 21.404C23.7011 21.0192 24.0101 20.5245 24.7649 20.5245C24.9841 20.5245 25.2791 20.5866 25.5468 20.724L25.5951 21.4237H25.4374C25.3689 20.9916 25.1285 20.7447 24.6892 20.7447C24.4144 20.7447 24.1542 20.9025 24.1542 21.1976C24.1542 22.0014 25.7463 21.7537 25.7463 22.8318C25.7463 23.2848 25.3827 23.7659 24.5657 23.7659C24.2911 23.7659 23.9684 23.6697 23.7286 23.5327L23.6528 22.7429L23.7765 22.7082H23.7763ZM21.1343 23.4844H21.3195C21.511 23.4844 21.6485 23.4844 21.6485 23.2572V21.3283C21.6485 21.1154 21.3946 21.074 21.2917 21.0192V20.9163C21.7927 20.7035 22.0673 20.5247 22.1301 20.5247C22.1704 20.5247 22.191 20.5454 22.191 20.6144V21.2323H22.2056C22.3766 20.9646 22.6652 20.5247 23.0836 20.5247C23.2554 20.5247 23.4749 20.6412 23.4749 20.8885C23.4749 21.0742 23.3447 21.2396 23.1526 21.2396C22.9391 21.2396 22.9391 21.0742 22.6993 21.0742C22.5825 21.0742 22.1983 21.2323 22.1983 21.6444V23.2574C22.1983 23.4846 22.3352 23.4846 22.5277 23.4846H22.9117V23.663C22.5342 23.6559 22.247 23.6494 21.9515 23.6494C21.6701 23.6494 21.3817 23.6561 21.1347 23.663V23.4846L21.1343 23.4844ZM20.1942 21.5479C20.3658 21.5479 20.3857 21.4584 20.3857 21.3764C20.3857 21.0261 20.1731 20.7447 19.7886 20.7447C19.3703 20.7447 19.0821 21.0531 18.9998 21.5481H20.1942V21.5479ZM18.9795 21.7678C18.9651 21.8299 18.9649 21.9324 18.9795 22.1664C19.0199 22.8184 19.4393 23.3539 19.9876 23.3539C20.3656 23.3539 20.6611 23.1478 20.9145 22.8941L21.0102 22.9901C20.6944 23.4089 20.3034 23.7661 19.7411 23.7661C18.6495 23.7661 18.4301 22.7084 18.4301 22.2693C18.4301 20.9228 19.3357 20.5247 19.8158 20.5247C20.3723 20.5247 20.9698 20.8749 20.9757 21.6029C20.9757 21.6444 20.9757 21.6852 20.9698 21.7268L20.9074 21.768H18.9795V21.7678ZM15.4652 21.4379C15.4652 21.1842 15.3893 21.1156 15.0674 20.9851V20.8546C15.3621 20.7584 15.6431 20.669 15.973 20.5245C15.9935 20.5245 16.0138 20.5387 16.0138 20.5929V21.0393C16.4053 20.7583 16.7419 20.5243 17.2021 20.5243C17.7851 20.5243 17.9907 20.9501 17.9907 21.4858V23.2568C17.9907 23.4841 18.1418 23.4841 18.3341 23.4841H18.4578V23.6624C18.2167 23.6624 17.977 23.6488 17.7305 23.6488C17.4829 23.6488 17.236 23.6555 16.9888 23.6624V23.4841H17.1125C17.305 23.4841 17.4413 23.4841 17.4413 23.2568V21.4789C17.4413 21.0872 17.2021 20.8953 16.8105 20.8953C16.591 20.8953 16.241 21.0736 16.0138 21.225V23.2568C16.0138 23.4841 16.1655 23.4841 16.3578 23.4841H16.4811V23.6624C16.2411 23.6624 16.0006 23.6488 15.7534 23.6488C15.5067 23.6488 15.2593 23.6555 15.0124 23.6624V23.4841H15.1362C15.3284 23.4841 15.4655 23.4841 15.4655 23.2568V21.4373L15.4652 21.4379ZM14.079 19.4676C13.9002 19.4676 13.7426 19.3026 13.7426 19.124C13.7426 18.952 13.9075 18.7937 14.0789 18.7937C14.2568 18.7937 14.4151 18.9386 14.4151 19.124C14.4151 19.3097 14.2638 19.4676 14.0789 19.4676H14.079ZM13.3446 23.4846H13.475C13.6669 23.4846 13.8042 23.4846 13.8042 23.2574V21.3969C13.8042 21.0951 13.7014 21.0533 13.4475 20.9165V20.8065C13.77 20.71 14.1547 20.5801 14.1817 20.5594C14.2301 20.532 14.2709 20.5247 14.3054 20.5247C14.3393 20.5247 14.3535 20.5661 14.3535 20.6214V23.2574C14.3535 23.4846 14.5046 23.4846 14.6968 23.4846H14.8131V23.663C14.5796 23.663 14.3391 23.6494 14.0928 23.6494C13.8456 23.6494 13.5984 23.6561 13.3446 23.663V23.4846ZM8.99284 19.632C8.99284 19.0143 8.67073 19.0551 8.36221 19.0485V18.87C8.62955 18.8832 8.90398 18.8832 9.1719 18.8832C9.46011 18.8832 9.85117 18.87 10.3594 18.87C12.1366 18.87 13.1043 20.0572 13.1043 21.2733C13.1043 21.9533 12.7063 23.663 10.2767 23.663C9.92701 23.663 9.60394 23.6494 9.28163 23.6494C8.97312 23.6494 8.67073 23.6561 8.36221 23.663V23.4846C8.77357 23.443 8.97312 23.4296 8.99284 22.9625V19.632Z" fill="#0B56A6"/>
</svg>
