<svg width="49" height="34" viewBox="0 0 49 34" fill="none" xmlns="http://www.w3.org/2000/svg">
<rect x="0.5" y="0.5" width="47.592" height="33" rx="2.5" fill="white"/>
<rect x="0.5" y="0.5" width="47.592" height="33" rx="2.5" stroke="#CCCCCC"/>
<g clip-path="url(#clip0_355_75173)">
<path d="M21.1686 22.9582H18.3301L20.1046 11.3438H22.9396L21.1686 22.9582Z" fill="#00579F"/>
<path d="M31.4445 11.6249C30.8845 11.3913 29.999 11.1318 28.9035 11.1318C26.1035 11.1318 24.133 12.7148 24.119 14.9761C24.0945 16.6443 25.5295 17.5711 26.604 18.1272C27.6995 18.6944 28.074 19.0651 28.074 19.573C28.0635 20.3515 27.1885 20.7111 26.373 20.7111C25.2425 20.7111 24.6335 20.5257 23.713 20.092L23.3385 19.9066L22.9395 22.5127C23.6045 22.8353 24.8295 23.117 26.1 23.1318C29.075 23.1318 31.0105 21.5748 31.035 19.1652C31.0455 17.8418 30.2895 16.8297 28.655 16.003C27.6645 15.4729 27.0555 15.1133 27.0555 14.5684C27.066 14.0753 27.57 13.5674 28.69 13.5674C29.6105 13.5415 30.2895 13.7787 30.8005 14.0123L31.0595 14.1346L31.4445 11.6249Z" fill="#00579F"/>
<path d="M35.2136 18.8433C35.4481 18.176 36.3441 15.5921 36.3441 15.5921C36.3336 15.6181 36.5786 14.9137 36.7186 14.48L36.9181 15.4809C36.9181 15.4809 37.4536 18.2613 37.5726 18.8433C37.1281 18.8433 35.7736 18.8433 35.2136 18.8433ZM38.7136 11.3438H36.5191C35.8436 11.3438 35.3291 11.5551 35.0386 12.3076L30.8281 22.9582H33.8031C33.8031 22.9582 34.2931 21.5235 34.3981 21.2159C34.7236 21.2159 37.6181 21.2159 38.0381 21.2159C38.1186 21.6236 38.3776 22.9582 38.3776 22.9582H41.0026L38.7136 11.3438Z" fill="#00579F"/>
<path d="M15.9648 11.3438L13.1893 19.2622L12.8848 17.657C12.3703 15.8034 10.7603 13.7905 8.96484 12.7895L11.5093 22.9471H14.5053L18.9608 11.3438H15.9648Z" fill="#00579F"/>
<path d="M10.6095 11.3438H6.0455L6 11.5773C9.5595 12.5412 11.915 14.8655 12.8845 17.657L11.8905 12.3187C11.7295 11.5773 11.2255 11.366 10.6095 11.3438Z" fill="#FAA61A"/>
</g>
<defs>
<clipPath id="clip0_355_75173">
<rect width="35" height="12" fill="white" transform="translate(6 11.1318)"/>
</clipPath>
</defs>
</svg>
