<svg width="50" height="34" viewBox="0 0 50 34" fill="none" xmlns="http://www.w3.org/2000/svg">
<rect x="1.0918" y="0.5" width="47.592" height="33" rx="2.5" fill="white"/>
<rect x="1.0918" y="0.5" width="47.592" height="33" rx="2.5" stroke="#CCCCCC"/>
<g clip-path="url(#clip0_355_75175)">
<path d="M28.0255 6.81055H20.293V20.7046H28.0255V6.81055Z" fill="#FF5F00"/>
<path d="M20.7832 13.7572C20.7832 11.0569 22.0351 8.47943 24.1462 6.81019C20.3168 3.79082 14.769 4.45361 11.7496 8.3076C8.73027 12.137 9.39306 17.6848 13.2471 20.7042C16.4628 23.2326 20.955 23.2326 24.1708 20.7042C22.0351 19.035 20.7832 16.4574 20.7832 13.7572Z" fill="#EB001B"/>
<path d="M38.4567 13.7572C38.4567 18.6422 34.5045 22.5944 29.6195 22.5944C27.6312 22.5944 25.7164 21.9316 24.1699 20.7042C27.9994 17.6848 28.6622 12.137 25.6428 8.28305C25.2009 7.743 24.71 7.2275 24.1699 6.81019C27.9994 3.79082 33.5717 4.45361 36.5665 8.3076C37.7939 9.85411 38.4567 11.7688 38.4567 13.7572Z" fill="#F79E1B"/>
<path d="M37.623 19.2314V18.9368H37.7457V18.8877H37.4512V18.9368H37.5739V19.2314H37.623ZM38.1876 19.2314V18.8877H38.0894L37.9912 19.1332L37.893 18.8877H37.7948V19.2314H37.8685V18.9613L37.9667 19.1823H38.0403L38.1385 18.9613V19.2314H38.1876Z" fill="#F79E1B"/>
<path d="M11.5183 29.7589V27.8091C11.5183 27.0681 11.0504 26.5742 10.2964 26.5742C9.85449 26.5482 9.43853 26.7562 9.20455 27.1331C8.98357 26.7692 8.59361 26.5612 8.17765 26.5742C7.81368 26.5612 7.46271 26.7302 7.26773 27.0421V26.6522H6.5918V29.7589H7.28073V28.043C7.28073 27.4971 7.5797 27.2111 8.04766 27.2111C8.50262 27.2111 8.7236 27.5101 8.7236 28.0301V29.7589H9.41253V28.043C9.41253 27.4971 9.7245 27.2111 10.1795 27.2111C10.6474 27.2111 10.8684 27.5101 10.8684 28.0301V29.7589H11.5183ZM21.6444 26.6522H20.5395V25.7033H19.8506V26.6522H19.2136V27.2761H19.8506V28.693C19.8506 29.4209 20.1365 29.8499 20.9295 29.8499C21.2284 29.8499 21.5274 29.7719 21.7744 29.6029L21.5794 29.018C21.3974 29.1219 21.1894 29.1869 20.9814 29.1999C20.6435 29.1999 20.5265 28.992 20.5265 28.68V27.2631H21.6314V26.6522H21.6444ZM27.4158 26.5742C27.0779 26.5612 26.7659 26.7432 26.5969 27.0291V26.6522H25.921V29.7589H26.5969V28.0171C26.5969 27.4971 26.8179 27.2111 27.2599 27.2111C27.4028 27.2111 27.5458 27.2371 27.6888 27.2891L27.8968 26.6522C27.7408 26.6002 27.5848 26.5742 27.4158 26.5742ZM18.6807 26.8992C18.3037 26.6652 17.8617 26.5612 17.4068 26.5742C16.6139 26.5742 16.1069 26.9512 16.1069 27.5751C16.1069 28.082 16.4839 28.394 17.1858 28.498L17.5108 28.55C17.8877 28.602 18.0567 28.706 18.0567 28.875C18.0567 29.1219 17.8097 29.2519 17.3418 29.2519C16.9648 29.2649 16.6009 29.1479 16.3019 28.927L15.9769 29.4599C16.3669 29.7329 16.8478 29.8759 17.3288 29.8629C18.2257 29.8629 18.7457 29.4339 18.7457 28.849C18.7457 28.303 18.3297 28.0171 17.6538 27.9131L17.3288 27.8611C17.0298 27.8221 16.7958 27.7571 16.7958 27.5491C16.7958 27.3151 17.0168 27.1851 17.3938 27.1851C17.7318 27.1851 18.0697 27.2761 18.3687 27.4581L18.6807 26.8992ZM36.827 26.5742C36.489 26.5612 36.177 26.7432 36.008 27.0291V26.6522H35.3321V29.7589H36.008V28.0171C36.008 27.4971 36.229 27.2111 36.671 27.2111C36.814 27.2111 36.957 27.2371 37.0999 27.2891L37.3079 26.6522C37.1519 26.6002 36.983 26.5742 36.827 26.5742ZM28.0918 28.212C28.0918 29.1609 28.7547 29.8499 29.7556 29.8499C30.1586 29.8759 30.5615 29.7329 30.8735 29.4729L30.5486 28.927C30.3146 29.1089 30.0286 29.1999 29.7296 29.2129C29.1837 29.2129 28.7937 28.81 28.7937 28.212C28.7937 27.6141 29.1967 27.2241 29.7296 27.2111C30.0286 27.2111 30.3146 27.3151 30.5486 27.4971L30.8735 26.9512C30.5615 26.6912 30.1586 26.5612 29.7556 26.5742C28.7547 26.5742 28.0918 27.2631 28.0918 28.212ZM34.4352 28.212V26.6522H33.7593V27.0291C33.5253 26.7302 33.1613 26.5612 32.7713 26.5742C31.9004 26.5742 31.2115 27.2631 31.2115 28.212C31.2115 29.1609 31.9004 29.8499 32.7713 29.8499C33.1483 29.8629 33.5253 29.6939 33.7593 29.3949V29.7719H34.4352V28.212ZM31.9134 28.212C31.9134 27.6661 32.2774 27.2111 32.8623 27.2111C33.4213 27.2111 33.7982 27.6401 33.7982 28.212C33.7982 28.784 33.4213 29.2129 32.8623 29.2129C32.2774 29.1999 31.9134 28.758 31.9134 28.212ZM23.7502 26.5742C22.8403 26.5742 22.2033 27.2371 22.2033 28.212C22.2033 29.1999 22.8663 29.8499 23.8022 29.8499C24.2701 29.8629 24.7251 29.7069 25.0761 29.4079L24.7381 28.901C24.4781 29.1089 24.1662 29.2259 23.8282 29.2259C23.3862 29.2259 22.9963 29.018 22.8923 28.459H25.2061C25.2191 28.368 25.2191 28.29 25.2191 28.199C25.2191 27.2371 24.6211 26.5742 23.7502 26.5742ZM23.7372 27.1721C24.1791 27.1721 24.4521 27.4451 24.5301 27.9261H22.9053C22.9833 27.4841 23.2562 27.1721 23.7372 27.1721ZM40.7266 28.212V25.4043H40.0507V27.0291C39.8167 26.7302 39.4527 26.5612 39.0628 26.5742C38.1918 26.5742 37.5029 27.2631 37.5029 28.212C37.5029 29.1609 38.1918 29.8499 39.0628 29.8499C39.4397 29.8629 39.8167 29.6939 40.0507 29.3949V29.7719H40.7266V28.212ZM41.5195 29.4729C41.5455 29.4729 41.5715 29.4729 41.5975 29.4859C41.6235 29.4989 41.6365 29.5119 41.6625 29.5249C41.6755 29.5379 41.7015 29.5639 41.7015 29.5899C41.7275 29.6419 41.7275 29.6939 41.7015 29.7459C41.6885 29.7719 41.6755 29.7849 41.6625 29.8109C41.6495 29.8239 41.6235 29.8369 41.5975 29.8499C41.5715 29.8629 41.5455 29.8629 41.5195 29.8629C41.4415 29.8629 41.3635 29.8109 41.3375 29.7459C41.3115 29.6939 41.3115 29.6419 41.3375 29.5899C41.3635 29.5379 41.4025 29.4989 41.4415 29.4859C41.4545 29.4859 41.4805 29.4729 41.5195 29.4729ZM41.5195 29.8239C41.5455 29.8239 41.5585 29.8239 41.5845 29.8109C41.5975 29.7979 41.6235 29.7979 41.6365 29.7719C41.7015 29.7069 41.7015 29.6159 41.6365 29.5509C41.6235 29.5379 41.6105 29.5249 41.5845 29.5119C41.5715 29.4989 41.5455 29.4989 41.5195 29.4989C41.4935 29.4989 41.4805 29.4989 41.4545 29.5119C41.3765 29.5509 41.3375 29.6419 41.3765 29.7199C41.3895 29.7329 41.3895 29.7589 41.4025 29.7719C41.4155 29.7849 41.4285 29.7979 41.4545 29.8109C41.4675 29.8239 41.4935 29.8239 41.5195 29.8239ZM41.5195 29.5769C41.5325 29.5769 41.5585 29.5769 41.5715 29.5899C41.5845 29.6029 41.5975 29.6159 41.5845 29.6289C41.5845 29.6419 41.5845 29.6549 41.5715 29.6679C41.5585 29.6809 41.5455 29.6809 41.5325 29.6809L41.5975 29.7459H41.5455L41.4935 29.6809H41.4805V29.7459H41.4415V29.5639L41.5195 29.5769ZM41.4805 29.6159V29.6679H41.5195C41.5325 29.6679 41.5325 29.6679 41.5455 29.6679L41.5585 29.6549C41.5585 29.6419 41.5585 29.6419 41.5455 29.6419C41.5325 29.6419 41.5325 29.6419 41.5195 29.6419H41.4805V29.6159ZM38.2048 28.212C38.2048 27.6661 38.5688 27.2111 39.1537 27.2111C39.7127 27.2111 40.0897 27.6401 40.0897 28.212C40.0897 28.784 39.7127 29.2129 39.1537 29.2129C38.5558 29.1999 38.2048 28.758 38.2048 28.212ZM15.34 28.212V26.6522H14.664V27.0291C14.4301 26.7302 14.0661 26.5612 13.6761 26.5742C12.8052 26.5742 12.1163 27.2631 12.1163 28.212C12.1163 29.1609 12.8052 29.8499 13.6761 29.8499C14.0531 29.8629 14.4301 29.6939 14.664 29.3949V29.7719H15.34V28.212ZM12.8182 28.212C12.8182 27.6661 13.1822 27.2111 13.7671 27.2111C14.3261 27.2111 14.703 27.6401 14.703 28.212C14.703 28.784 14.3261 29.2129 13.7671 29.2129C13.1692 29.1999 12.8182 28.758 12.8182 28.212Z" fill="#231F20"/>
</g>
<defs>
<clipPath id="clip0_355_75175">
<rect width="35.1292" height="24.9454" fill="white" transform="translate(6.5918 4.91797)"/>
</clipPath>
</defs>
</svg>
