<svg width="25" height="24" viewBox="0 0 25 24" fill="none" xmlns="http://www.w3.org/2000/svg">
<path d="M21.0563 21.5839C21.1243 21.6519 21.2344 21.6519 21.3023 21.5839L22.123 20.7633C22.1556 20.7306 22.1739 20.6864 22.1739 20.6403C22.1739 20.5941 22.1556 20.5499 22.123 20.5173L14.9748 13.3691C15.4056 12.8422 15.7554 12.2209 16.0256 11.5074C16.3185 10.734 16.465 9.93332 16.465 9.10648C16.465 7.204 15.8033 5.58748 14.4816 4.26762C13.1601 2.94783 11.5433 2.28699 9.64191 2.28699C7.74043 2.28699 6.12476 2.94876 4.8056 4.2704C3.48652 5.59195 2.82606 7.20873 2.82606 9.1101C2.82606 11.0115 3.48691 12.6272 4.80682 13.9463C6.12671 15.2655 7.74318 15.926 9.64553 15.926C10.4278 15.926 11.2051 15.7869 11.9767 15.5099C12.6963 15.2515 13.3403 14.8934 13.9074 14.435L21.0563 21.5839ZM13.4195 5.33247L13.5425 5.20948L13.4195 5.33248C14.4452 6.35815 14.9575 7.61249 14.9575 9.10648C14.9575 10.6005 14.4452 11.8548 13.4195 12.8805C12.3939 13.9062 11.1395 14.4185 9.64553 14.4185C8.15154 14.4185 6.89721 13.9062 5.87153 12.8805C4.84588 11.8548 4.33359 10.6005 4.33359 9.10648C4.33359 7.61249 4.84588 6.35815 5.87153 5.33248C6.89721 4.3068 8.15154 3.7945 9.64553 3.7945C11.1395 3.7945 12.3939 4.3068 13.4195 5.33247Z" fill="white" stroke="white" stroke-width="0.347887" stroke-linejoin="round"/>
</svg>
