<svg width="24" height="25" viewBox="0 0 24 25" fill="none" xmlns="http://www.w3.org/2000/svg">
<rect y="0.590088" width="24" height="24" stroke="white"/>
<path d="M6.01752 22.5901C5.50613 22.5901 5.07914 22.4188 4.73655 22.0762C4.39395 21.7336 4.22266 21.3066 4.22266 20.7952V8.82939C4.22266 8.318 4.39395 7.89101 4.73655 7.54842C5.07914 7.20583 5.50613 7.03453 6.01752 7.03453H8.11155V6.47898C8.11155 5.3992 8.48975 4.48111 9.24616 3.7247C10.0026 2.96829 10.9207 2.59009 12.0004 2.59009C13.0802 2.59009 13.9983 2.96829 14.7547 3.7247C15.5111 4.48111 15.8893 5.3992 15.8893 6.47898V7.03453H17.9834C18.4947 7.03453 18.9217 7.20583 19.2643 7.54842C19.6069 7.89101 19.7782 8.318 19.7782 8.82939V20.7952C19.7782 21.3066 19.6069 21.7336 19.2643 22.0762C18.9217 22.4188 18.4947 22.5901 17.9834 22.5901H6.01752ZM6.01752 21.479H17.9834C18.1543 21.479 18.311 21.4078 18.4534 21.2653C18.5959 21.1228 18.6671 20.9662 18.6671 20.7952V8.82939C18.6671 8.65847 18.5959 8.50177 18.4534 8.35931C18.311 8.21687 18.1543 8.14564 17.9834 8.14564H15.8893V10.9234C15.8893 11.0815 15.8363 11.2137 15.7301 11.3198C15.624 11.4259 15.4919 11.479 15.3338 11.479C15.1756 11.479 15.0435 11.4259 14.9374 11.3198C14.8313 11.2137 14.7782 11.0815 14.7782 10.9234V8.14564H9.22266V10.9234C9.22266 11.0815 9.16959 11.2137 9.06346 11.3198C8.95735 11.4259 8.82523 11.479 8.6671 11.479C8.50897 11.479 8.37685 11.4259 8.27074 11.3198C8.16461 11.2137 8.11155 11.0815 8.11155 10.9234V8.14564H6.01752C5.84659 8.14564 5.6899 8.21687 5.54743 8.35931C5.40499 8.50177 5.33377 8.65847 5.33377 8.82939V20.7952C5.33377 20.9662 5.40499 21.1228 5.54743 21.2653C5.6899 21.4078 5.84659 21.479 6.01752 21.479ZM9.22266 7.03453H14.7782V6.47898C14.7782 5.69692 14.5108 5.03845 13.9759 4.50356C13.441 3.96865 12.7825 3.7012 12.0004 3.7012C11.2184 3.7012 10.5599 3.96865 10.025 4.50356C9.49011 5.03845 9.22266 5.69692 9.22266 6.47898V7.03453Z" fill="#292929"/>
</svg>
