<svg width="24" height="24" viewBox="0 0 24 24" fill="none" xmlns="http://www.w3.org/2000/svg">
<path d="M4.29341 18.2931L10.5864 12.0001L4.29341 5.70708C4.11125 5.51848 4.01045 5.26588 4.01273 5.00368C4.01501 4.74148 4.12018 4.49067 4.30559 4.30526C4.491 4.11985 4.74181 4.01469 5.00401 4.01241C5.2662 4.01013 5.5188 4.11092 5.70741 4.29308L12.0004 10.5861L18.2934 4.29308C18.3857 4.19757 18.496 4.12139 18.618 4.06898C18.74 4.01657 18.8712 3.98898 19.004 3.98783C19.1368 3.98668 19.2685 4.01198 19.3914 4.06226C19.5143 4.11254 19.6259 4.18679 19.7198 4.28069C19.8137 4.37458 19.8879 4.48623 19.9382 4.60913C19.9885 4.73202 20.0138 4.8637 20.0127 4.99648C20.0115 5.12926 19.9839 5.26048 19.9315 5.38249C19.8791 5.50449 19.8029 5.61483 19.7074 5.70708L13.4144 12.0001L19.7074 18.2931C19.8029 18.3853 19.8791 18.4957 19.9315 18.6177C19.9839 18.7397 20.0115 18.8709 20.0127 19.0037C20.0138 19.1365 19.9885 19.2681 19.9382 19.391C19.8879 19.5139 19.8137 19.6256 19.7198 19.7195C19.6259 19.8134 19.5143 19.8876 19.3914 19.9379C19.2685 19.9882 19.1368 20.0135 19.004 20.0123C18.8712 20.0112 18.74 19.9836 18.618 19.9312C18.496 19.8788 18.3857 19.8026 18.2934 19.7071L12.0004 13.4141L5.70741 19.7071C5.5188 19.8892 5.2662 19.99 5.00401 19.9878C4.74181 19.9855 4.491 19.8803 4.30559 19.6949C4.12018 19.5095 4.01501 19.2587 4.01273 18.9965C4.01045 18.7343 4.11125 18.4817 4.29341 18.2931Z" fill="#292929"/>
</svg>
