<svg width="25" height="24" viewBox="0 0 25 24" fill="none" xmlns="http://www.w3.org/2000/svg">
<path d="M12.4904 20.2798C12.2763 20.2798 12.0612 20.2413 11.8452 20.1644C11.6291 20.0874 11.4391 19.9669 11.275 19.8028L9.83848 18.4971C8.06539 16.8804 6.48238 15.2923 5.08943 13.7327C3.69648 12.173 3 10.5022 3 8.72019C3 7.30097 3.47852 6.11284 4.43558 5.15579C5.39263 4.19874 6.58076 3.72021 7.99998 3.72021C8.80638 3.72021 9.60285 3.90612 10.3894 4.27792C11.1759 4.64972 11.8795 5.25357 12.5 6.08947C13.1205 5.25357 13.824 4.64972 14.6105 4.27792C15.3971 3.90612 16.1936 3.72021 17 3.72021C18.4192 3.72021 19.6073 4.19874 20.5644 5.15579C21.5214 6.11284 22 7.30097 22 8.72019C22 10.5215 21.2916 12.2109 19.875 13.7884C18.4583 15.366 16.8788 16.9407 15.1365 18.5125L13.7154 19.8028C13.5513 19.9669 13.3596 20.0874 13.1404 20.1644C12.9211 20.2413 12.7045 20.2798 12.4904 20.2798ZM11.7808 7.60867C11.2397 6.7843 10.6702 6.18013 10.0721 5.79617C9.47402 5.41218 8.78331 5.22019 7.99998 5.22019C6.99998 5.22019 6.16664 5.55352 5.49998 6.22019C4.83331 6.88686 4.49998 7.72019 4.49998 8.72019C4.49998 9.52276 4.75863 10.3619 5.27593 11.2375C5.79323 12.1131 6.44257 12.9836 7.22398 13.849C8.00539 14.7144 8.85187 15.5599 9.7634 16.3855C10.6749 17.2112 11.5198 17.9785 12.298 18.6875C12.3557 18.7388 12.423 18.7644 12.5 18.7644C12.5769 18.7644 12.6442 18.7388 12.7019 18.6875C13.4801 17.9785 14.325 17.2112 15.2366 16.3855C16.1481 15.5599 16.9946 14.7144 17.776 13.849C18.5574 12.9836 19.2067 12.1131 19.724 11.2375C20.2413 10.3619 20.5 9.52276 20.5 8.72019C20.5 7.72019 20.1666 6.88686 19.5 6.22019C18.8333 5.55352 18 5.22019 17 5.22019C16.2166 5.22019 15.5259 5.41218 14.9279 5.79617C14.3298 6.18013 13.7602 6.7843 13.2192 7.60867C13.1346 7.73687 13.0282 7.83302 12.9 7.89714C12.7718 7.96124 12.6384 7.99329 12.5 7.99329C12.3615 7.99329 12.2282 7.96124 12.1 7.89714C11.9718 7.83302 11.8654 7.73687 11.7808 7.60867Z" fill="#292929"/>
</svg>
