<svg width="19" height="18" viewBox="0 0 19 18" fill="none" xmlns="http://www.w3.org/2000/svg">
<path d="M9.49035 17.2798C9.27625 17.2798 9.06119 17.2413 8.84518 17.1644C8.62914 17.0874 8.43908 16.9669 8.27498 16.8028L6.83848 15.4971C5.06539 13.8804 3.48238 12.2923 2.08943 10.7327C0.696475 9.17305 0 7.50222 0 5.72019C0 4.30097 0.478525 3.11284 1.43558 2.15579C2.39263 1.19874 3.58076 0.720215 4.99998 0.720215C5.80638 0.720215 6.60285 0.906116 7.3894 1.27792C8.17593 1.64972 8.87946 2.25357 9.49998 3.08947C10.1205 2.25357 10.824 1.64972 11.6105 1.27792C12.3971 0.906116 13.1936 0.720215 14 0.720215C15.4192 0.720215 16.6073 1.19874 17.5644 2.15579C18.5214 3.11284 19 4.30097 19 5.72019C19 7.52146 18.2916 9.21087 16.875 10.7884C15.4583 12.366 13.8788 13.9407 12.1365 15.5125L10.7154 16.8028C10.5513 16.9669 10.3596 17.0874 10.1404 17.1644C9.92112 17.2413 9.70445 17.2798 9.49035 17.2798ZM8.78075 4.60867C8.23973 3.7843 7.67018 3.18013 7.0721 2.79617C6.47402 2.41218 5.78331 2.22019 4.99998 2.22019C3.99998 2.22019 3.16664 2.55352 2.49998 3.22019C1.83331 3.88686 1.49998 4.72019 1.49998 5.72019C1.49998 6.52276 1.75863 7.36186 2.27593 8.23749C2.79323 9.11312 3.44257 9.98362 4.22398 10.849C5.00539 11.7144 5.85187 12.5599 6.7634 13.3855C7.67493 14.2112 8.51981 14.9785 9.29803 15.6875C9.35573 15.7388 9.42304 15.7644 9.49998 15.7644C9.57691 15.7644 9.64423 15.7388 9.70193 15.6875C10.4801 14.9785 11.325 14.2112 12.2366 13.3855C13.1481 12.5599 13.9946 11.7144 14.776 10.849C15.5574 9.98362 16.2067 9.11312 16.724 8.23749C17.2413 7.36186 17.5 6.52276 17.5 5.72019C17.5 4.72019 17.1666 3.88686 16.5 3.22019C15.8333 2.55352 15 2.22019 14 2.22019C13.2166 2.22019 12.5259 2.41218 11.9279 2.79617C11.3298 3.18013 10.7602 3.7843 10.2192 4.60867C10.1346 4.73687 10.0282 4.83302 9.89998 4.89714C9.77176 4.96124 9.63843 4.99329 9.49998 4.99329C9.36153 4.99329 9.22819 4.96124 9.09998 4.89714C8.97178 4.83302 8.86537 4.73687 8.78075 4.60867Z" fill="white"/>
</svg>
