<svg width="25" height="24" viewBox="0 0 25 24" fill="none" xmlns="http://www.w3.org/2000/svg">
<path d="M12.4904 20.2803C12.2763 20.2803 12.0612 20.2418 11.8452 20.1649C11.6291 20.0879 11.4391 19.9674 11.275 19.8033L9.83848 18.4976C8.06539 16.8809 6.48238 15.2928 5.08943 13.7332C3.69648 12.1735 3 10.5027 3 8.72068C3 7.30146 3.47852 6.11333 4.43558 5.15628C5.39263 4.19923 6.58076 3.7207 7.99998 3.7207C8.80638 3.7207 9.60285 3.9066 10.3894 4.2784C11.1759 4.6502 11.8795 5.25405 12.5 6.08995C13.1205 5.25405 13.824 4.6502 14.6105 4.2784C15.3971 3.9066 16.1936 3.7207 17 3.7207C18.4192 3.7207 19.6073 4.19923 20.5644 5.15628C21.5214 6.11333 22 7.30146 22 8.72068C22 10.5219 21.2916 12.2114 19.875 13.7889C18.4583 15.3665 16.8788 16.9412 15.1365 18.513L13.7154 19.8033C13.5513 19.9674 13.3596 20.0879 13.1404 20.1649C12.9211 20.2418 12.7045 20.2803 12.4904 20.2803ZM11.7808 7.60915C11.2397 6.78479 10.6702 6.18062 10.0721 5.79665C9.47402 5.41267 8.78331 5.22068 7.99998 5.22068C6.99998 5.22068 6.16664 5.55401 5.49998 6.22068C4.83331 6.88735 4.49998 7.72068 4.49998 8.72068C4.49998 9.52325 4.75863 10.3623 5.27593 11.238C5.79323 12.1136 6.44257 12.9841 7.22398 13.8495C8.00539 14.7149 8.85187 15.5604 9.7634 16.386C10.6749 17.2117 11.5198 17.979 12.298 18.688C12.3557 18.7393 12.423 18.7649 12.5 18.7649C12.5769 18.7649 12.6442 18.7393 12.7019 18.688C13.4801 17.979 14.325 17.2117 15.2366 16.386C16.1481 15.5604 16.9946 14.7149 17.776 13.8495C18.5574 12.9841 19.2067 12.1136 19.724 11.238C20.2413 10.3623 20.5 9.52325 20.5 8.72068C20.5 7.72068 20.1666 6.88735 19.5 6.22068C18.8333 5.55401 18 5.22068 17 5.22068C16.2166 5.22068 15.5259 5.41267 14.9279 5.79665C14.3298 6.18062 13.7602 6.78479 13.2192 7.60915C13.1346 7.73735 13.0282 7.83351 12.9 7.89763C12.7718 7.96173 12.6384 7.99378 12.5 7.99378C12.3615 7.99378 12.2282 7.96173 12.1 7.89763C11.9718 7.83351 11.8654 7.73735 11.7808 7.60915Z" fill="white"/>
</svg>
