<svg width="39" height="39" viewBox="0 0 39 39" fill="none" xmlns="http://www.w3.org/2000/svg">
<path d="M19.2402 38.0601C14.2011 38.0601 9.3684 36.0583 5.80521 32.4951C2.24202 28.9319 0.240234 24.0992 0.240234 19.0601C0.240234 14.0209 2.24202 9.18821 5.80521 5.62502C9.3684 2.06182 14.2011 0.0600586 19.2402 0.0600586C24.2793 0.0600586 29.1121 2.06182 32.6753 5.62502C36.2385 9.18821 38.2402 14.0209 38.2402 19.0601C38.2402 24.0992 36.2385 28.9319 32.6753 32.4951C29.1121 36.0583 24.2793 38.0601 19.2402 38.0601Z" fill="#BBDF73"/>
<path d="M19.2408 10.4904C22.0208 10.4904 22.3508 10.4904 23.4508 10.5504C24.1129 10.5625 24.7684 10.6841 25.3908 10.9104C25.8439 11.0777 26.2539 11.3442 26.5908 11.6904C26.938 12.0263 27.2047 12.4366 27.3708 12.8904C27.597 13.5127 27.7187 14.1683 27.7308 14.8304C27.7308 15.9304 27.7908 16.2604 27.7908 19.0504C27.7908 21.8404 27.7908 22.1604 27.7308 23.2604C27.7187 23.9225 27.597 24.578 27.3708 25.2004C27.2047 25.6541 26.938 26.0644 26.5908 26.4004C26.2539 26.7466 25.8439 27.0131 25.3908 27.1804C24.7684 27.4066 24.1129 27.5282 23.4508 27.5404C22.3508 27.5904 22.0208 27.6004 19.2408 27.6004C16.4608 27.6004 16.1208 27.6004 15.0208 27.5404C14.3587 27.5282 13.7031 27.4066 13.0808 27.1804C12.6301 27.0082 12.2211 26.7423 11.8808 26.4004C11.5366 26.0618 11.2704 25.6523 11.1008 25.2004C10.8745 24.578 10.7529 23.9225 10.7408 23.2604C10.7408 22.1604 10.6808 21.8304 10.6808 19.0504C10.6808 16.2704 10.6808 15.9304 10.7408 14.8304C10.7529 14.1683 10.8745 13.5127 11.1008 12.8904C11.2704 12.4384 11.5366 12.0289 11.8808 11.6904C12.2211 11.3484 12.6301 11.0825 13.0808 10.9104C13.7031 10.6841 14.3587 10.5625 15.0208 10.5504C16.1208 10.5504 16.4508 10.4904 19.2408 10.4904ZM19.2408 8.61035C16.4008 8.61035 16.0508 8.61035 14.9308 8.67035C14.0657 8.68827 13.21 8.854 12.4008 9.16035C11.7056 9.42378 11.0748 9.83294 10.5508 10.3604C10.0212 10.8825 9.61167 11.5139 9.35078 12.2104C9.0483 13.0207 8.88271 13.8757 8.86078 14.7404C8.81078 15.8604 8.80078 16.2104 8.80078 19.0504C8.80078 21.8904 8.80078 22.2404 8.86078 23.3504C8.88271 24.215 9.0483 25.07 9.35078 25.8804C9.61672 26.5604 10.0205 27.178 10.5368 27.6943C11.0532 28.2106 11.6708 28.6144 12.3508 28.8804C13.16 29.1867 14.0157 29.3524 14.8808 29.3704C16.0008 29.4204 16.3508 29.4304 19.1908 29.4304C22.0308 29.4304 22.3808 29.4304 23.4908 29.3704C24.356 29.3534 25.2118 29.1877 26.0208 28.8804C26.7008 28.6144 27.3184 28.2106 27.8347 27.6943C28.351 27.178 28.7548 26.5604 29.0208 25.8804C29.3281 25.0714 29.4938 24.2156 29.5108 23.3504C29.5608 22.2404 29.5708 21.8804 29.5708 19.0504C29.5708 16.2204 29.5708 15.8604 29.5108 14.7404C29.4938 13.8752 29.3281 13.0193 29.0208 12.2104C28.7634 11.5121 28.3535 10.88 27.8208 10.3604C27.2986 9.83073 26.6673 9.42124 25.9708 9.16035C25.1618 8.85305 24.306 8.68729 23.4408 8.67035C22.3308 8.67035 21.9708 8.61035 19.1408 8.61035" fill="white"/>
<path d="M19.2401 13.6699C18.1796 13.668 17.1423 13.9806 16.2596 14.5684C15.3768 15.1562 14.6882 15.9926 14.281 16.9718C13.8738 17.951 13.7662 19.0291 13.9719 20.0695C14.1776 21.1099 14.6873 22.0659 15.4365 22.8165C16.1857 23.5671 17.1407 24.0786 18.1808 24.2862C19.2208 24.4938 20.299 24.3883 21.279 23.9829C22.259 23.5775 23.0967 22.8905 23.6861 22.0088C24.2755 21.1272 24.5901 20.0905 24.5901 19.0299C24.5901 17.6101 24.0268 16.2483 23.0238 15.2434C22.0207 14.2385 20.66 13.6726 19.2401 13.6699ZM19.2401 22.4999C18.551 22.5019 17.8768 22.2993 17.303 21.9176C16.7292 21.536 16.2816 20.9926 16.017 20.3563C15.7523 19.72 15.6826 19.0195 15.8165 18.3435C15.9505 17.6675 16.2821 17.0465 16.7694 16.5592C17.2567 16.0719 17.8777 15.7403 18.5537 15.6063C19.2296 15.4724 19.9302 15.5421 20.5665 15.8068C21.2028 16.0714 21.7462 16.519 22.1278 17.0928C22.5094 17.6666 22.7121 18.3408 22.7101 19.0299C22.7101 19.4856 22.6204 19.9368 22.446 20.3578C22.2716 20.7788 22.016 21.1614 21.6938 21.4836C21.3716 21.8058 20.989 22.0614 20.568 22.2358C20.147 22.4102 19.6958 22.4999 19.2401 22.4999Z" fill="white"/>
<path d="M26.0805 13.49C26.0805 13.7396 26.0064 13.9836 25.8675 14.1911C25.7286 14.3985 25.5312 14.56 25.3004 14.655C25.0696 14.7501 24.8157 14.7744 24.571 14.725C24.3263 14.6756 24.1019 14.5546 23.926 14.3774C23.7502 14.2002 23.631 13.9747 23.5836 13.7296C23.5361 13.4846 23.5625 13.2309 23.6594 13.0009C23.7563 12.7708 23.9193 12.5747 24.1278 12.4375C24.3363 12.3002 24.5809 12.228 24.8305 12.23C24.9955 12.23 25.1589 12.2627 25.3112 12.3261C25.4635 12.3896 25.6018 12.4825 25.718 12.5997C25.8342 12.7168 25.926 12.8558 25.9883 13.0086C26.0505 13.1614 26.0819 13.325 26.0805 13.49Z" fill="white"/>
</svg>
