<svg width="1356" height="345" viewBox="0 0 1356 345" fill="none" xmlns="http://www.w3.org/2000/svg">
<g clip-path="url(#clip0_1209_29541)">
<path d="M1103.9 10.9743H1037.84V270.521L894.078 11.7347H821.671L678.781 268.292L536.13 11.7347H464.015L339.843 234.667C328.369 198.485 291.072 167.641 220.369 154.917C126.468 137.974 87.8744 121.5 91.4837 95.7659C96.2181 35.2451 245.656 22.5993 247.463 96.2191H330.307C308.864 -36.5518 34.8431 -27.5205 8.65039 92.1409C-0.156902 148.604 67.5671 173.657 147.255 189.245C234.374 204.818 277.447 230.948 253.525 266.651C221.437 314.547 87.2077 317.047 84.4994 241.183H-0.427734C5.83789 352.401 187.76 367.485 287.145 318.381C292.588 315.688 297.208 311.302 297.208 311.302L280.114 342.037H361.327L406.374 256.735H593.343L638.39 342.037H719.343L764.39 256.735H951.359L996.416 342.037L1104.79 341.834C1201.63 341.823 1356.43 340.214 1356.49 176.407C1356.54 10.8337 1200.07 10.3232 1103.9 10.9743ZM430.364 211.287L499.859 79.6982L569.354 211.287H430.364ZM788.39 211.287L857.885 79.6982L927.374 211.287H788.39ZM1106.28 290.651V62.6982C1176.25 62.3024 1287.12 63.9899 1287.07 176.854C1287.03 289.453 1176.61 290.636 1106.28 290.651Z" fill="#231F20"/>
</g>
<defs>
<clipPath id="clip0_1209_29541">
<rect width="1356" height="345" fill="white"/>
</clipPath>
</defs>
</svg>
