<svg xmlns="http://www.w3.org/2000/svg" xmlns:xlink="http://www.w3.org/1999/xlink" width="120" zoomAndPan="magnify" viewBox="0 0 1440 809.999993" height="32" preserveAspectRatio="xMidYMid meet" version="1.0"><path fill="#000" d="M 1017.675781 272.980469 L 968.132812 272.980469 L 968.132812 467.640625 L 860.308594 273.550781 L 806.003906 273.550781 L 698.835938 465.96875 L 591.847656 273.550781 L 537.761719 273.550781 L 444.632812 440.75 C 436.027344 413.613281 408.054688 390.480469 355.027344 380.9375 C 284.601562 368.230469 255.65625 355.875 258.363281 336.574219 C 261.914062 291.183594 373.992188 281.699219 375.347656 336.914062 L 437.480469 336.914062 C 421.398438 237.335938 215.882812 244.109375 196.238281 333.855469 C 189.632812 376.203125 240.425781 394.992188 300.191406 406.683594 C 365.53125 418.363281 397.835938 437.960938 379.894531 464.738281 C 355.828125 500.660156 255.15625 502.535156 253.125 445.636719 L 189.429688 445.636719 C 194.128906 529.050781 330.570312 540.363281 405.109375 503.535156 C 409.191406 501.515625 412.65625 498.226562 412.65625 498.226562 L 399.835938 521.277344 L 460.746094 521.277344 L 494.53125 457.300781 L 634.757812 457.300781 L 668.542969 521.277344 L 729.257812 521.277344 L 763.042969 457.300781 L 903.269531 457.300781 L 937.0625 521.277344 L 1018.34375 521.125 C 1090.976562 521.117188 1207.070312 519.910156 1207.117188 397.054688 C 1207.15625 272.875 1089.804688 272.492188 1017.675781 272.980469 Z M 512.523438 423.214844 L 564.644531 324.523438 L 616.765625 423.214844 Z M 781.042969 423.214844 L 833.164062 324.523438 L 885.28125 423.214844 Z M 1019.457031 482.738281 L 1019.457031 311.773438 C 1071.9375 311.476562 1155.089844 312.742188 1155.054688 397.390625 C 1155.023438 481.839844 1072.207031 482.726562 1019.457031 482.738281 Z M 1019.457031 482.738281 " fill-opacity="1" fill-rule="nonzero"/></svg>