<svg width="24" height="24" viewBox="0 0 24 24" fill="none" xmlns="http://www.w3.org/2000/svg">
<path d="M20.5563 21.5844C20.6243 21.6524 20.7344 21.6524 20.8023 21.5844L21.623 20.7638C21.6556 20.7311 21.6739 20.6869 21.6739 20.6408C21.6739 20.5946 21.6556 20.5504 21.623 20.5178L14.4748 13.3696C14.9056 12.8427 15.2554 12.2214 15.5256 11.5079C15.8185 10.7344 15.965 9.9338 15.965 9.10697C15.965 7.20449 15.3033 5.58797 13.9816 4.26811C12.6601 2.94832 11.0433 2.28748 9.14191 2.28748C7.24043 2.28748 5.62476 2.94924 4.3056 4.27088C2.98652 5.59244 2.32606 7.20922 2.32606 9.11059C2.32606 11.012 2.98691 12.6276 4.30682 13.9468C5.62671 15.266 7.24318 15.9265 9.14553 15.9265C9.92779 15.9265 10.7051 15.7873 11.4767 15.5104C12.1963 15.252 12.8403 14.8939 13.4074 14.4355L20.5563 21.5844ZM12.9195 5.33296L13.0425 5.20997L12.9195 5.33296C13.9452 6.35864 14.4575 7.61298 14.4575 9.10697C14.4575 10.601 13.9452 11.8553 12.9195 12.881C11.8939 13.9067 10.6395 14.4189 9.14553 14.4189C7.65154 14.4189 6.39721 13.9067 5.37153 12.881C4.34588 11.8553 3.83359 10.601 3.83359 9.10697C3.83359 7.61297 4.34588 6.35864 5.37153 5.33296C6.39721 4.30729 7.65154 3.79499 9.14553 3.79499C10.6395 3.79499 11.8939 4.30729 12.9195 5.33296Z" fill="#292929" stroke="#292929" stroke-width="0.347887" stroke-linejoin="round"/>
</svg>
