<svg width="25" height="24" viewBox="0 0 25 24" fill="none" xmlns="http://www.w3.org/2000/svg">
<path d="M3.9547 6.56401L3.9547 6.56399C3.81362 6.61102 3.72701 6.67427 3.67936 6.74574L3.9547 6.56401ZM3.9547 6.56401L3.95647 6.56338M3.9547 6.56401L3.95647 6.56338M3.95647 6.56338C4.50223 6.37002 4.99652 6.2385 5.43976 6.16788L3.95647 6.56338ZM4.08338 16.3511L4.08346 16.3513C4.4554 16.226 4.88326 16.1261 5.36638 16.0511C5.85133 15.9758 6.39602 15.9384 7 15.9384C7.88082 15.9384 8.7378 16.0396 9.57076 16.2422C10.3547 16.4328 11.1312 16.7357 11.9 17.1502V7.55928C11.1986 7.06531 10.4271 6.69349 9.58503 6.44385C8.72468 6.1888 7.8631 6.06145 7 6.06145L4.08338 16.3511ZM4.08338 16.3511L4.07691 16.3537M4.08338 16.3511L4.07691 16.3537M4.07691 16.3537C3.95034 16.4065 3.84452 16.3969 3.7468 16.3334C3.65227 16.2719 3.6 16.1755 3.6 16.023V7.0076C3.6 6.91199 3.62619 6.82551 3.67936 6.74575L4.07691 16.3537ZM14.2846 9.5922V9.75856L14.4315 9.68051C14.957 9.40138 15.5233 9.18989 16.1307 9.04627C16.7384 8.90257 17.3614 8.83068 18 8.83068C18.3952 8.83068 18.7559 8.85197 19.0823 8.89427C19.4072 8.93638 19.7414 9.0122 20.0849 9.12207L20.2154 9.1638V9.02683V8.11913V8.04037L20.1388 8.02191C19.7744 7.93403 19.4205 7.86608 19.0773 7.81816C18.7326 7.77004 18.3735 7.74605 18 7.74605C17.3468 7.74605 16.7097 7.81475 16.0889 7.95227C15.4677 8.0899 14.8844 8.29648 14.3395 8.5722L14.2846 8.59995V8.66143V9.5922ZM14.2846 15.0538V15.2212L14.432 15.1418C14.9578 14.8587 15.5245 14.6398 16.1323 14.4853L16.1077 14.3884L16.1323 14.4853C16.7395 14.331 17.362 14.2538 18 14.2538C18.3952 14.2538 18.7559 14.275 19.0823 14.3173C19.4072 14.3595 19.7414 14.4353 20.0849 14.5451L20.2154 14.5869V14.4499V13.5422V13.4634L20.1388 13.445C19.7744 13.3571 19.4205 13.2892 19.0773 13.2412C18.7326 13.1931 18.3735 13.1691 18 13.1691C17.3595 13.1691 16.7194 13.2379 16.08 13.3752C15.4393 13.5128 14.8583 13.7196 14.3377 13.9962L14.2846 14.0244V14.0845V15.0538ZM14.2846 12.3422V12.5086L14.4315 12.4305C14.9576 12.1511 15.5245 11.933 16.1326 11.7765C16.7397 11.6203 17.3621 11.5422 18 11.5422C18.3952 11.5422 18.7559 11.5635 19.0823 11.6058C19.4072 11.6479 19.7414 11.7237 20.0849 11.8336L20.2154 11.8754V11.7384V10.8307V10.7519L20.1388 10.7335C19.7744 10.6456 19.4205 10.5776 19.0773 10.5297C18.7326 10.4816 18.3735 10.4576 18 10.4576C17.3468 10.4576 16.7097 10.5263 16.0889 10.6638C15.4677 10.8014 14.8844 11.008 14.3395 11.2837L14.2846 11.3115V11.373V12.3422ZM13.1 17.1502V7.55928C13.8014 7.06531 14.5729 6.69349 15.415 6.44385C16.2753 6.1888 17.1369 6.06145 18 6.06145C18.5963 6.06145 19.1161 6.09714 19.5602 6.16788C20.0028 6.23839 20.4962 6.3696 21.0409 6.56246C21.1843 6.62253 21.2737 6.68971 21.3225 6.75802C21.3739 6.83 21.4 6.91203 21.4 7.0076V16.023C21.4 16.1755 21.3477 16.2719 21.2532 16.3334C21.1555 16.3969 21.0497 16.4065 20.9231 16.3537L20.9232 16.3535L20.9165 16.3513C20.5446 16.226 20.1167 16.1261 19.6336 16.0511C19.1487 15.9758 18.604 15.9384 18 15.9384C17.1192 15.9384 16.2622 16.0396 15.4292 16.2422C14.6453 16.4328 13.8688 16.7357 13.1 17.1502ZM12.4435 18.8517L12.5 18.8903L12.5565 18.8517C13.3613 18.3007 14.2257 17.8774 15.1497 17.5817C16.0731 17.2862 17.0231 17.1384 18 17.1384C18.4894 17.1384 18.9727 17.1783 19.4498 17.2582C19.9257 17.3378 20.3919 17.4661 20.8485 17.6431L20.8497 17.6436C21.267 17.7992 21.6662 17.7591 22.0374 17.5227C22.4105 17.2851 22.6 16.9391 22.6 16.4961V6.83068C22.6 6.56466 22.5298 6.31704 22.39 6.08981L22.3048 6.1422L22.39 6.0898C22.2485 5.85985 22.0491 5.69812 21.7947 5.60694C21.2014 5.34555 20.5841 5.15592 19.9431 5.03807C19.3025 4.9203 18.6547 4.86143 18 4.86143C17.0108 4.86143 16.0455 5.00388 15.1047 5.28879C14.1846 5.5674 13.3163 5.96989 12.5 6.49607C11.6837 5.96989 10.8154 5.5674 9.89533 5.28879C8.95446 5.00388 7.98924 4.86143 7 4.86143C6.34525 4.86143 5.69753 4.9203 5.05692 5.03807C4.41588 5.15592 3.79861 5.34555 3.20528 5.60694C2.95091 5.69812 2.75147 5.85985 2.61 6.0898L2.61 6.08981C2.47023 6.31704 2.4 6.56466 2.4 6.83068V16.4961C2.4 16.9356 2.57345 17.2867 2.919 17.5384L2.97787 17.4576L2.919 17.5384C3.26509 17.7905 3.64199 17.839 4.03708 17.6812L4.03749 17.6811C4.5066 17.4914 4.98856 17.3536 5.48346 17.2677C5.97961 17.1815 6.48509 17.1384 7 17.1384C7.97692 17.1384 8.92689 17.2862 9.85029 17.5817C10.7743 17.8774 11.6387 18.3007 12.4435 18.8517Z" fill="#292929" stroke="#292929" stroke-width="0.2"/>
</svg>
