<svg width="25" height="24" viewBox="0 0 25 24" fill="none" xmlns="http://www.w3.org/2000/svg">
<path d="M12.5 10.7141C11.4393 10.7141 10.5313 10.3364 9.77589 9.58104C9.02054 8.82568 8.64286 7.91765 8.64286 6.85693C8.64286 5.7962 9.02054 4.88815 9.77589 4.13279C10.5313 3.37743 11.4393 2.99976 12.5 2.99976C13.5607 2.99976 14.4688 3.37743 15.2241 4.13279C15.9795 4.88815 16.3571 5.7962 16.3571 6.85693C16.3571 7.91765 15.9795 8.82568 15.2241 9.58104C14.4688 10.3364 13.5607 10.7141 12.5 10.7141ZM20.1649 20.0108H4.83515C4.45769 20.0108 4.14079 19.8826 3.88446 19.6263C3.62815 19.37 3.5 19.0531 3.5 18.6756V17.8943C3.5 17.3635 3.65453 16.8669 3.9636 16.4046C4.27266 15.9422 4.68846 15.5833 5.211 15.3278C6.42418 14.7459 7.63818 14.3095 8.85301 14.0186C10.0679 13.7276 11.2835 13.5822 12.5 13.5822C13.7165 13.5822 14.9321 13.7276 16.147 14.0186C17.3618 14.3095 18.5758 14.7459 19.789 15.3278C20.3115 15.5833 20.7273 15.9422 21.0364 16.4046C21.3455 16.8669 21.5 17.3635 21.5 17.8943V18.6756C21.5 19.0531 21.3718 19.37 21.1155 19.6263C20.8592 19.8826 20.5423 20.0108 20.1649 20.0108ZM4.78571 18.725H20.2143V17.8943C20.2143 17.6091 20.1224 17.3413 19.9386 17.0907C19.7548 16.8402 19.5005 16.6283 19.1758 16.4553C18.1176 15.9426 17.0265 15.5499 15.9025 15.2771C14.7786 15.0043 13.6444 14.8679 12.5 14.8679C11.3556 14.8679 10.2214 15.0043 9.09749 15.2771C7.97352 15.5499 6.88242 15.9426 5.82419 16.4553C5.49946 16.6283 5.2452 16.8402 5.0614 17.0907C4.87761 17.3413 4.78571 17.6091 4.78571 17.8943V18.725ZM12.5 9.42836C13.2071 9.42836 13.8125 9.17657 14.3161 8.673C14.8196 8.16943 15.0714 7.56407 15.0714 6.85693C15.0714 6.14979 14.8196 5.54443 14.3161 5.04086C13.8125 4.53729 13.2071 4.2855 12.5 4.2855C11.7929 4.2855 11.1875 4.53729 10.6839 5.04086C10.1804 5.54443 9.92857 6.14979 9.92857 6.85693C9.92857 7.56407 10.1804 8.16943 10.6839 8.673C11.1875 9.17657 11.7929 9.42836 12.5 9.42836Z" fill="white"/>
</svg>
