<svg width="25" height="24" viewBox="0 0 25 24" fill="none" xmlns="http://www.w3.org/2000/svg">
<path d="M4.97198 19.528L4.90139 19.5986C4.56779 19.265 4.4 18.8584 4.4 18.3846V7.48653C4.4 7.28083 4.43286 7.08591 4.49924 6.9025L4.97198 19.528ZM4.97198 19.528L4.90139 19.5986C5.235 19.9322 5.64158 20.1 6.11538 20.1H18.8846C19.3584 20.1 19.765 19.9322 20.0986 19.5986L20.0279 19.5279L20.0986 19.5986C20.4322 19.265 20.6 18.8584 20.6 18.3846V7.54422C20.6 7.33851 20.5671 7.1408 20.5011 6.95166C20.4349 6.76182 20.3355 6.58963 20.2034 6.43558L18.6287 4.52864C18.4737 4.32087 18.2762 4.16358 18.0377 4.05763L18.0377 4.05763C17.801 3.95251 17.5509 3.9 17.2885 3.9H7.67308C7.41061 3.9 7.16335 3.95252 6.93245 4.05808L6.93244 4.05808M4.97198 19.528L6.93244 4.05808M6.93244 4.05808C6.7004 4.16419 6.50666 4.32142 6.35217 4.52847L4.7967 6.39697M6.93244 4.05808L4.7967 6.39697M4.7967 6.39697C4.66506 6.55046 4.56563 6.71905 4.49924 6.90249L4.7967 6.39697ZM15.6 13.2788V7.9077H19.4V18.3846C19.4 18.5405 19.3509 18.6615 19.2562 18.7562C19.1615 18.8509 19.0405 18.9 18.8846 18.9H6.11538C5.9595 18.9 5.83845 18.8509 5.74379 18.7562C5.64912 18.6615 5.6 18.5405 5.6 18.3846V7.9077H9.4V13.2788C9.4 13.6185 9.54297 13.8839 9.82542 14.0624C10.1085 14.2413 10.4071 14.2516 10.7069 14.0949L12.5 13.2077L14.2931 14.0949C14.5929 14.2516 14.8915 14.2413 15.1746 14.0624C15.457 13.8839 15.6 13.6185 15.6 13.2788ZM17.5062 5.14849L17.5062 5.1485C17.5776 5.18145 17.6405 5.22494 17.6954 5.27915L18.8864 6.70768H6.09434L7.28533 5.27916C7.34027 5.22494 7.40319 5.18145 7.4746 5.1485L7.47462 5.14849C7.5451 5.11595 7.61736 5.1 7.6923 5.1H17.2885C17.3634 5.1 17.4357 5.11595 17.5062 5.14849ZM12.5447 11.8721L12.5 11.8497L12.4553 11.8721L10.6 12.7997V7.9077H14.4V12.7997L12.5447 11.8721Z" fill="#292929" stroke="#292929" stroke-width="0.2"/>
</svg>
