<svg width="25" height="24" viewBox="0 0 25 24" fill="none" xmlns="http://www.w3.org/2000/svg">
<path d="M2.80711 12.5531L4.90536 10.4371V12.0308C4.90536 14.1129 5.6557 15.9021 7.15305 17.393C8.65045 18.8839 10.4491 19.6308 12.5438 19.6308C13.0689 19.6308 13.5847 19.5752 14.0912 19.464C14.5976 19.3529 15.0961 19.1869 15.5867 18.9662L15.7189 18.9067L15.6164 18.8043L15.0607 18.2485L15.0149 18.2027L14.9544 18.2258C14.59 18.3645 14.2004 18.4719 13.7854 18.5478C13.3707 18.6236 12.9569 18.6615 12.5438 18.6615C10.697 18.6615 9.12594 18.0151 7.82492 16.7205C6.52389 15.4257 5.87458 13.8644 5.87458 12.0308V10.4356L7.99232 12.5534L8.06303 12.6241L8.13374 12.5534L8.64722 12.0399L8.71793 11.9692L8.64722 11.8985L5.46067 8.71197L5.38974 8.64105L5.31903 8.71219L2.15173 11.8987L2.08145 11.9694L2.15194 12.0399L2.66539 12.5534L2.7364 12.6244L2.80711 12.5531ZM19.5442 15.2995L19.615 15.3703L19.6857 15.2995L22.8722 12.113L22.9443 12.0409L22.8709 11.9702L22.3574 11.476L22.287 11.4083L22.2176 11.4771L20.0996 13.5773V12.0308C20.0996 9.93607 19.3527 8.14362 17.8615 6.65892L17.7909 6.72979L17.8615 6.65892C16.3704 5.17435 14.5749 4.43076 12.4804 4.43076C11.9558 4.43076 11.4374 4.48205 10.9251 4.58463C10.4116 4.68747 9.91535 4.84953 9.4365 5.07073L9.30876 5.12973L9.40649 5.23096L9.94301 5.78674L9.98742 5.83274L10.0478 5.81174C10.4259 5.68024 10.8194 5.57868 11.2284 5.50714C11.6366 5.43573 12.0539 5.39999 12.4804 5.39999C14.3141 5.39999 15.8788 6.04623 17.18 7.34107C18.481 8.63577 19.1304 10.1971 19.1304 12.0308V13.5629L17.0379 11.4527L16.9685 11.3826L16.8975 11.4511L16.359 11.9703L16.2857 12.041L16.3577 12.113L19.5442 15.2995Z" fill="#292929" stroke="#292929" stroke-width="0.2"/>
</svg>
