<svg width="24" height="24" viewBox="0 0 24 24" fill="none" xmlns="http://www.w3.org/2000/svg">
<path d="M12 10.7143C10.9393 10.7143 10.0313 10.3366 9.27589 9.58128C8.52054 8.82593 8.14286 7.91789 8.14286 6.85718C8.14286 5.79644 8.52054 4.88839 9.27589 4.13304C10.0313 3.37768 10.9393 3 12 3C13.0607 3 13.9688 3.37768 14.7241 4.13304C15.4795 4.88839 15.8571 5.79644 15.8571 6.85718C15.8571 7.91789 15.4795 8.82593 14.7241 9.58128C13.9688 10.3366 13.0607 10.7143 12 10.7143ZM19.6649 20.011H4.33515C3.95769 20.011 3.64079 19.8829 3.38446 19.6265C3.12815 19.3702 3 19.0533 3 18.6758V17.8945C3 17.3638 3.15453 16.8672 3.4636 16.4048C3.77266 15.9425 4.18846 15.5835 4.711 15.328C5.92418 14.7462 7.13818 14.3098 8.35301 14.0188C9.56786 13.7279 10.7835 13.5824 12 13.5824C13.2165 13.5824 14.4321 13.7279 15.647 14.0188C16.8618 14.3098 18.0758 14.7462 19.289 15.328C19.8115 15.5835 20.2273 15.9425 20.5364 16.4048C20.8455 16.8672 21 17.3638 21 17.8945V18.6758C21 19.0533 20.8718 19.3702 20.6155 19.6265C20.3592 19.8829 20.0423 20.011 19.6649 20.011ZM4.28571 18.7253H19.7143V17.8945C19.7143 17.6094 19.6224 17.3415 19.4386 17.0909C19.2548 16.8404 19.0005 16.6286 18.6758 16.4555C17.6176 15.9429 16.5265 15.5502 15.4025 15.2774C14.2786 15.0045 13.1444 14.8681 12 14.8681C10.8556 14.8681 9.72144 15.0045 8.59749 15.2774C7.47352 15.5502 6.38242 15.9429 5.32419 16.4555C4.99946 16.6286 4.7452 16.8404 4.5614 17.0909C4.37761 17.3415 4.28571 17.6094 4.28571 17.8945V18.7253ZM12 9.4286C12.7071 9.4286 13.3125 9.17682 13.8161 8.67325C14.3196 8.16968 14.5714 7.56432 14.5714 6.85718C14.5714 6.15003 14.3196 5.54468 13.8161 5.0411C13.3125 4.53753 12.7071 4.28575 12 4.28575C11.2929 4.28575 10.6875 4.53753 10.1839 5.0411C9.68036 5.54468 9.42857 6.15003 9.42857 6.85718C9.42857 7.56432 9.68036 8.16968 10.1839 8.67325C10.6875 9.17682 11.2929 9.4286 12 9.4286Z" fill="#292929"/>
</svg>
