<svg width="25" height="24" viewBox="0 0 25 24" fill="none" xmlns="http://www.w3.org/2000/svg">
<path d="M12.5 10.7143C11.4393 10.7143 10.5313 10.3366 9.77589 9.58128C9.02054 8.82593 8.64286 7.91789 8.64286 6.85718C8.64286 5.79644 9.02054 4.88839 9.77589 4.13304C10.5313 3.37768 11.4393 3 12.5 3C13.5607 3 14.4688 3.37768 15.2241 4.13304C15.9795 4.88839 16.3571 5.79644 16.3571 6.85718C16.3571 7.91789 15.9795 8.82593 15.2241 9.58128C14.4688 10.3366 13.5607 10.7143 12.5 10.7143ZM20.1649 20.011H4.83515C4.45769 20.011 4.14079 19.8829 3.88446 19.6265C3.62815 19.3702 3.5 19.0533 3.5 18.6758V17.8945C3.5 17.3638 3.65453 16.8672 3.9636 16.4048C4.27266 15.9425 4.68846 15.5835 5.211 15.328C6.42418 14.7462 7.63818 14.3098 8.85301 14.0188C10.0679 13.7279 11.2835 13.5824 12.5 13.5824C13.7165 13.5824 14.9321 13.7279 16.147 14.0188C17.3618 14.3098 18.5758 14.7462 19.789 15.328C20.3115 15.5835 20.7273 15.9425 21.0364 16.4048C21.3455 16.8672 21.5 17.3638 21.5 17.8945V18.6758C21.5 19.0533 21.3718 19.3702 21.1155 19.6265C20.8592 19.8829 20.5423 20.011 20.1649 20.011ZM4.78571 18.7253H20.2143V17.8945C20.2143 17.6094 20.1224 17.3415 19.9386 17.0909C19.7548 16.8404 19.5005 16.6286 19.1758 16.4555C18.1176 15.9429 17.0265 15.5502 15.9025 15.2774C14.7786 15.0045 13.6444 14.8681 12.5 14.8681C11.3556 14.8681 10.2214 15.0045 9.09749 15.2774C7.97352 15.5502 6.88242 15.9429 5.82419 16.4555C5.49946 16.6286 5.2452 16.8404 5.0614 17.0909C4.87761 17.3415 4.78571 17.6094 4.78571 17.8945V18.7253ZM12.5 9.4286C13.2071 9.4286 13.8125 9.17682 14.3161 8.67325C14.8196 8.16968 15.0714 7.56432 15.0714 6.85718C15.0714 6.15003 14.8196 5.54468 14.3161 5.0411C13.8125 4.53753 13.2071 4.28575 12.5 4.28575C11.7929 4.28575 11.1875 4.53753 10.6839 5.0411C10.1804 5.54468 9.92857 6.15003 9.92857 6.85718C9.92857 7.56432 10.1804 8.16968 10.6839 8.67325C11.1875 9.17682 11.7929 9.4286 12.5 9.4286Z" fill="white"/>
</svg>
