<svg width="48" height="17" viewBox="0 0 48 17" fill="none" xmlns="http://www.w3.org/2000/svg">
<path d="M34.0042 6.36662H32.3193V12.1683C32.3185 12.2776 32.2305 12.3661 32.1218 12.3669H30.8241C30.7154 12.3661 30.6274 12.2776 30.6266 12.1683V6.36662H28.9293C28.8779 6.36872 28.8279 6.34975 28.7907 6.31406C28.7534 6.27836 28.7322 6.229 28.7318 6.17726V5.14979C28.7321 5.09806 28.7534 5.04869 28.7907 5.013C28.8279 4.9773 28.8779 4.95833 28.9293 4.96044H34.0011C34.1105 4.95516 34.2036 5.03978 34.2094 5.14979V6.17726C34.2036 6.28602 34.1124 6.37015 34.0042 6.36662Z" fill="white"/>
<path d="M39.4078 12.3282C38.7435 12.4238 38.0729 12.4674 37.4019 12.4586C36.1228 12.4586 34.9933 12.1295 34.9933 10.3152V7.0046C34.9933 5.19023 36.1336 4.87206 37.4111 4.87206C38.077 4.86288 38.7425 4.90596 39.4016 5.00088C39.5405 5.02106 39.5991 5.07072 39.5991 5.19955V6.13079C39.5983 6.24015 39.5103 6.32861 39.4016 6.32945H37.3186C36.8557 6.32945 36.6844 6.48466 36.6844 7.00771V7.91412H39.3291C39.4378 7.91495 39.5257 8.00341 39.5266 8.11278V9.05954C39.5258 9.16891 39.4378 9.25736 39.3291 9.25821H36.6844V10.3152C36.6844 10.8336 36.8526 10.9934 37.3186 10.9934H39.4078C39.5165 10.9943 39.6044 11.0827 39.6053 11.1921V12.1233C39.6068 12.2475 39.5466 12.308 39.4078 12.3282Z" fill="white"/>
<path d="M46.8851 12.367H45.3097C45.1998 12.3752 45.0967 12.3131 45.052 12.2118L43.6849 10.0389L42.4505 12.1714C42.3811 12.2909 42.3117 12.3701 42.2021 12.3701H40.7394C40.701 12.377 40.6617 12.3664 40.6319 12.3413C40.6021 12.3161 40.5849 12.2789 40.5851 12.2397C40.5871 12.2153 40.5939 12.1916 40.6051 12.1699L42.7545 8.57063L40.5851 5.14987C40.5739 5.13149 40.567 5.11079 40.565 5.08934C40.5723 5.01075 40.6411 4.95267 40.7193 4.95896H42.3147C42.4243 4.95896 42.503 5.05829 42.5632 5.14831L43.8315 7.16601L45.0659 5.14831C45.1106 5.04627 45.2046 4.97468 45.3143 4.95896H46.7817C46.8599 4.95267 46.9287 5.01075 46.936 5.08934C46.934 5.11079 46.9271 5.13149 46.9159 5.14987L44.7558 8.59081L47.0039 12.1606C47.0213 12.1909 47.0313 12.2249 47.0332 12.2599C47.0147 12.3282 46.9638 12.367 46.8851 12.367Z" fill="white"/>
<path d="M26.3587 4.98076C26.2847 4.9791 26.2199 5.03056 26.2044 5.10337L24.7648 10.4611C24.7448 10.5713 24.7154 10.6163 24.6259 10.6163C24.5364 10.6163 24.5071 10.576 24.4871 10.4611L23.0521 5.10337C23.0366 5.03056 22.9718 4.9791 22.8978 4.98076H21.4813C21.4338 4.97958 21.3884 5.00053 21.3582 5.03753C21.3281 5.07453 21.3166 5.12345 21.327 5.17011C21.327 5.17011 23.0845 11.3117 23.103 11.3784C23.3375 12.111 23.9069 12.4648 24.6306 12.4648C25.3248 12.4899 25.9502 12.0452 26.1581 11.3784C26.1859 11.2946 27.9048 5.17011 27.9048 5.17011C27.9147 5.12367 27.903 5.07522 27.8729 5.03861C27.8428 5.00199 27.7977 4.98125 27.7505 4.98231L26.3587 4.98076Z" fill="white"/>
<path d="M18.3306 6.35798e-05H3.56107C3.02663 0.00497849 2.53327 0.289393 2.2589 0.750754C1.98452 1.21211 1.9687 1.78388 2.21713 2.25988L3.69531 5.09085H1.01669C0.674472 5.08459 0.354517 5.26096 0.175629 5.55449C-0.0032587 5.84801 -0.0143621 6.21483 0.146442 6.51876L4.89884 15.5518C5.06938 15.8762 5.40428 16.0791 5.76909 16.0791C6.1339 16.0791 6.4688 15.8762 6.63933 15.5518L7.92927 13.1042L9.54941 16.1866C9.81283 16.687 10.3297 17 10.8926 17C11.4555 17 11.9723 16.687 12.2357 16.1866L19.6421 2.17917C19.8873 1.71812 19.8726 1.16114 19.6034 0.713839C19.3342 0.266534 18.8504 -0.00477218 18.3306 6.35798e-05ZM11.7312 5.91811L8.49092 12.0302C8.37959 12.2413 8.16145 12.3733 7.92387 12.3733C7.6863 12.3733 7.46815 12.2413 7.35682 12.0302L4.15821 5.97709C4.05952 5.79081 4.06529 5.56609 4.17339 5.38518C4.28149 5.20426 4.47607 5.0937 4.68591 5.09396H11.2313C11.4285 5.0909 11.6126 5.19299 11.7153 5.36235C11.8181 5.53171 11.8241 5.7431 11.7312 5.91811Z" fill="white"/>
</svg>
