<svg width="24" height="24" viewBox="0 0 24 24" fill="none" xmlns="http://www.w3.org/2000/svg">
<g id="Icon">
<path id="Vector" d="M2.64394 19.9499L2.55697 20.1H2.73047H21.269H21.4425L21.3555 19.9499L12.0862 3.94987L11.9997 3.80051L11.9132 3.94987L2.64394 19.9499ZM12.5089 17.5092L12.5089 17.5092C12.6465 17.3715 12.7151 17.1995 12.7151 17C12.7151 16.8005 12.6465 16.6285 12.5089 16.4908L12.5089 16.4908C12.3713 16.3532 12.1993 16.2846 11.9997 16.2846C11.8002 16.2846 11.6282 16.3532 11.4905 16.4908L11.4905 16.4908C11.3529 16.6285 11.2843 16.8005 11.2843 17C11.2843 17.1995 11.3529 17.3715 11.4905 17.5092L11.4905 17.5092C11.6282 17.6468 11.8002 17.7154 11.9997 17.7154C12.1993 17.7154 12.3713 17.6468 12.5089 17.5092ZM11.3997 15.3846V15.4846H11.4997H12.4997H12.5997V15.3846V10.3846V10.2846H12.4997H11.4997H11.3997V10.3846V15.3846ZM11.9997 6.19912L19.376 18.9H4.62344L11.9997 6.19912Z" fill="#8A1B45" stroke="#BBDF73" stroke-width="0.2"/>
</g>
</svg>
