<svg width="39" height="39" viewBox="0 0 39 39" fill="none" xmlns="http://www.w3.org/2000/svg">
<path d="M38.0893 19.8801C38.0893 9.37012 29.5693 0.850098 19.0593 0.850098C8.54932 0.850098 0.0292969 9.37012 0.0292969 19.8801C0.0292969 30.3901 8.54932 38.9101 19.0593 38.9101C29.5693 38.9101 38.0893 30.3901 38.0893 19.8801Z" fill="#BBDF73"/>
<path fill-rule="evenodd" clip-rule="evenodd" d="M29.4889 19.3497C29.3993 16.7094 28.2937 14.2056 26.4028 12.3607C24.5119 10.5158 21.9816 9.47222 19.3399 9.44771C16.6982 9.4232 14.149 10.4196 12.2241 12.2292C10.2993 14.0387 9.14745 16.5215 9.0089 19.1597C9.0089 19.3097 9.0089 19.4597 9.0089 19.6097C9.00788 21.4614 9.51644 23.2778 10.4789 24.8597L8.62891 30.3197L14.3089 28.5097C15.8644 29.3643 17.6149 29.8008 19.3895 29.7766C21.164 29.7523 22.902 29.2681 24.4335 28.3714C25.965 27.4747 27.2378 26.196 28.1273 24.6603C29.0169 23.1246 29.493 21.3844 29.5089 19.6097C29.5075 19.5227 29.5008 19.4359 29.4889 19.3497ZM19.2489 28.1597C17.5636 28.1633 15.9147 27.6693 14.5089 26.7397L11.1989 27.7997L12.2689 24.6197C11.2046 23.1698 10.6302 21.4183 10.6289 19.6197C10.6137 19.3433 10.6137 19.0662 10.6289 18.7897C10.8416 16.6477 11.8481 14.6628 13.4503 13.2253C15.0525 11.7879 17.1346 11.0019 19.287 11.0219C21.4395 11.042 23.5065 11.8666 25.0817 13.3337C26.6569 14.8008 27.6261 16.8041 27.7989 18.9497C27.7989 19.1697 27.7989 19.3897 27.7989 19.6197C27.7858 21.8823 26.8804 24.0484 25.2795 25.6474C23.6787 27.2464 21.5115 28.1492 19.2489 28.1597Z" fill="white"/>
<path fill-rule="evenodd" clip-rule="evenodd" d="M23.9395 21.6602C23.6895 21.5402 22.4595 20.9302 22.2295 20.8502C21.9995 20.7702 21.8295 20.7202 21.6595 20.9702C21.4895 21.2202 21.0095 21.7902 20.8595 21.9702C20.7095 22.1502 20.5695 22.1602 20.3195 22.0302C19.5836 21.7406 18.9061 21.3205 18.3195 20.7902C17.7652 20.2941 17.2927 19.7136 16.9195 19.0702C16.7795 18.8202 16.9195 18.6902 17.0295 18.5602C17.1395 18.4302 17.2795 18.2702 17.4095 18.1302C17.4345 18.0867 17.4647 18.0464 17.4995 18.0102C17.5595 17.9102 17.5995 17.8302 17.6595 17.7102C17.6971 17.643 17.7169 17.5673 17.7169 17.4902C17.7169 17.4132 17.6971 17.3374 17.6595 17.2702C17.5995 17.1502 17.0895 15.9202 16.8795 15.4202C16.6695 14.9202 16.4695 15.0102 16.3195 15.0102C16.1695 15.0102 16.0095 15.0102 15.8395 15.0102C15.7124 15.0128 15.5873 15.0417 15.472 15.0951C15.3567 15.1484 15.2537 15.2251 15.1695 15.3202C14.8856 15.5883 14.6608 15.9126 14.5093 16.2725C14.3578 16.6323 14.2829 17.0198 14.2895 17.4102C14.2935 17.6982 14.3372 17.9842 14.4195 18.2602C14.616 18.88 14.917 19.4617 15.3095 19.9802C16.3559 21.6158 17.843 22.9226 19.5995 23.7502C22.1595 24.7502 22.1595 24.4102 22.5995 24.3702C22.9511 24.3039 23.2845 24.1635 23.5776 23.9583C23.8708 23.7531 24.1168 23.4879 24.2995 23.1802C24.4646 22.8101 24.5134 22.3987 24.4395 22.0002C24.3595 21.8502 24.1895 21.7902 23.9395 21.6602Z" fill="white"/>
</svg>
